<?xml version="1.0" encoding="utf-8"?>
<!-- Generator: Adobe Illustrator 24.1.1, SVG Export Plug-In . SVG Version: 6.00 Build 0)  -->
<svg version="1.1" id="Layer_1" xmlns="http://www.w3.org/2000/svg" xmlns:xlink="http://www.w3.org/1999/xlink" x="0px" y="0px"
	 viewBox="0 0 100 100" style="enable-background:new 0 0 100 100;" xml:space="preserve">
<style type="text/css">
	.st0{fill-rule:evenodd;clip-rule:evenodd;fill:#FAB401;}
	.st1{fill-rule:evenodd;clip-rule:evenodd;fill:#D32828;}
</style>
<desc>Created with Sketch.</desc>
<g id="Page-1">
	<g id="Logo" transform="translate(-962.000000, -99.000000)">
		<g id="Aadhaar-English-Logo" transform="translate(962.000000, 99.000000)">
			<g id="English-Logo">
				<path id="Fill-28" class="st0" d="M12,63.4c0.7-0.3,1.2-0.9,1.7-1.5c0.6-0.8,1.2-1.5,2-2.1c0.9-0.7,2.1-1.4,3.6-1.7
					c-0.3,1.7-0.5,3.5-0.5,5.3H12z M17.1,44.5L17.1,44.5L17.1,44.5c0.8,0,1.5-0.2,2.2-0.5c0.9-0.3,1.8-0.7,2.7-0.8
					c1.1-0.2,2.5-0.2,4,0.4c-2.3,2.7-4.1,5.8-5.3,9.2c-1.2-0.9-1.9-2.2-2.3-3.2c-0.3-0.9-0.5-1.8-0.7-2.8
					C17.6,45.9,17.5,45.1,17.1,44.5z M31,30.6L31,30.6L31,30.6c0.6,0.4,1.4,0.6,2.2,0.7c1,0.2,1.9,0.3,2.8,0.7
					c1.1,0.4,2.3,1.1,3.3,2.3c-3.4,1.2-6.5,3-9.2,5.3c-0.6-1.4-0.6-2.8-0.4-4c0.2-1,0.5-1.8,0.8-2.8C30.8,32.1,31,31.3,31,30.6z
					 M49.9,25.5L49.9,25.5L49.9,25.5c0.3,0.7,0.9,1.2,1.5,1.7c0.8,0.6,1.5,1.2,2.1,2c0.7,0.9,1.4,2.1,1.7,3.6
					c-1.7-0.3-3.5-0.5-5.3-0.5c-1.8,0-3.6,0.2-5.3,0.5c0.2-1.5,0.9-2.7,1.7-3.6c0.6-0.7,1.3-1.4,2.1-2C49,26.7,49.6,26.2,49.9,25.5z
					 M68.9,30.6L68.9,30.6L68.9,30.6c0,0.8,0.2,1.5,0.5,2.2c0.3,0.9,0.7,1.8,0.8,2.8c0.2,1.2,0.2,2.6-0.4,4
					c-2.7-2.3-5.8-4.1-9.2-5.3c0.9-1.2,2.2-1.9,3.3-2.3c0.9-0.3,1.8-0.5,2.8-0.7C67.5,31.1,68.2,31,68.9,30.6z M82.7,44.5L82.7,44.5
					L82.7,44.5c-0.4,0.6-0.6,1.4-0.7,2.2c-0.2,1-0.3,1.9-0.7,2.8c-0.4,1.1-1.1,2.3-2.3,3.2c-1.2-3.4-3.1-6.5-5.3-9.2
					c1.4-0.6,2.8-0.6,4-0.4c1,0.2,1.8,0.5,2.7,0.8C81.3,44.3,82,44.5,82.7,44.5z M80.6,58.1c1.5,0.2,2.7,0.9,3.6,1.7
					c0.7,0.6,1.4,1.3,2,2.1c0.5,0.6,1,1.2,1.7,1.5H81C81,61.6,80.8,59.9,80.6,58.1z M58.9,36.2C70.4,40,78.7,50.7,78.7,63.4H73
					C73.4,52.3,68.6,42.3,58.9,36.2z"/>
				<path id="Fill-29" class="st1" d="M60.1,63.4H63c0.1-3.2-0.1-7-1.2-10.3c-0.2-0.7-0.4-1.3-0.7-1.9c-0.6-1.4-1.5-2.7-2.5-3.9
					c-1.1-1.3-2.4-2.5-3.9-3.5c-0.4-0.3-0.9-0.5-1.4-0.8v0c-0.5-0.2-1-0.4-1.5-0.6l0,0c-5.7-2-11.5-0.6-16.4,2.1
					c-0.9,0.5-1.9,1.1-2.7,1.7c-0.9,0.6-1.7,1.2-2.5,1.8h0l0,0c-0.9,0.7-2.1,1.8-3.2,3c-0.2,0.2-0.4,0.5-0.7,0.7
					c-0.6,0.7-1.5,1.6-1.2,2.5c0.2,0.8,1.2,0.5,1.5,0.3c0.5-0.3,1.1-0.7,1.6-1.1c0.7-0.6,1.3-1.2,1.9-1.7c2.7-2.3,5.4-4.1,8.1-5.3
					c0.6-0.3,1.2-0.5,1.8-0.7c0.6-0.2,1.2-0.4,1.8-0.5l0,0c5.1-1.3,10.6-0.5,14.1,3.7C59.4,52.8,60,58.1,60.1,63.4z M23.6,58.9
					c0.3-0.3,0.6-0.7,1-1.1c0.5-0.6,0.5-1.2,0.3-1.6c-0.1-0.2-0.2-0.3-0.3-0.4c-0.1-0.1-0.3-0.2-0.4-0.2c-0.4-0.1-0.8,0-1.2,0.5
					c-0.4,0.5-1,1.5-1.2,2.3c0,0.2,0,0.3,0,0.4c0,0.1,0.1,0.3,0.1,0.4l0,0l0,0c0.1,0.2,0.3,0.3,0.5,0.3c0,0,0.1,0,0.1,0
					c0.1,0,0.1,0,0.2,0v0l0,0C23,59.4,23.3,59.2,23.6,58.9z M54.1,63.4H57c0.1-3.4-0.4-7-2-10.1c-1.5-2.8-3.9-4.7-7-5.2
					c-4.6-0.7-9.1,1.3-13,4c-4.2,3-7.7,7.1-10.8,11.2l3.9,0C31.5,58.5,39.5,51,45.4,51c1.9,0,3.8,0.4,5.2,1.7c1,0.9,2.3,2.7,2.2,4.1
					c0,0.9-0.8,1.1-1.5,0.8c-0.6-0.2-1-0.7-1.4-1.3c-1.3-1.8-3.3-2.6-5.5-2.3c-2.6,0.4-5.8,2.4-7.9,4.2c-1.8,1.6-3.4,3.3-5,5.2h4.1
					c1.5-1.8,3.1-3.4,5.2-4.7c0.7-0.4,1.5-0.8,2.3-1.1c2.1-0.7,4.3-0.5,5.2,2.1c0.4,1,0.4,2,0.3,3.6l0,0.1h2.8l0-0.1
					c0-0.9,0-1.5,0.1-2.4c0.1-0.8,0.3-1.6,1-1.7C54.2,58.9,54.1,62.3,54.1,63.4z M34.2,72.3h-2.3l-0.6,2h-1.8l2.4-7.6h2.3l2.5,7.6
					h-1.9L34.2,72.3z M32.2,71H34c-0.5-1.5-0.8-2.5-0.9-3.1h0l-0.4,1.5L32.2,71z M25.8,72.3h-2.3l-0.6,2h-1.8l2.4-7.6h2.3l2.5,7.6
					h-1.9L25.8,72.3z M23.8,71h1.8c-0.5-1.5-0.8-2.5-0.9-3.1h0l-0.4,1.5L23.8,71z M38.5,74.3v-7.5c0.8-0.1,1.6-0.2,2.4-0.2
					c1.6,0,2.8,0.3,3.5,1c0.7,0.7,1.1,1.6,1.1,2.7c0,1.3-0.4,2.3-1.2,3c-0.8,0.7-2.1,1.1-3.7,1.1C39.8,74.4,39.1,74.4,38.5,74.3z
					 M40.3,68v5c0.1,0,0.3,0,0.6,0c0.9,0,1.5-0.2,2-0.7c0.5-0.5,0.7-1.1,0.7-2c0-0.8-0.2-1.4-0.7-1.8c-0.4-0.4-1.1-0.6-1.9-0.6
					C40.8,68,40.5,68,40.3,68z M47.4,66.7h1.8v2.9h3v-2.9h1.8v7.6h-1.8v-3.2h-3v3.2h-1.8V66.7z M60.3,72.3H58l-0.6,2h-1.8l2.4-7.6
					h2.3l2.5,7.6h-1.9L60.3,72.3z M58.3,71H60c-0.5-1.5-0.8-2.5-0.9-3.1h0l-0.4,1.5L58.3,71z M68.7,72.3h-2.3l-0.6,2H64l2.4-7.6h2.3
					l2.5,7.6h-1.9L68.7,72.3z M66.7,71h1.8c-0.5-1.5-0.8-2.5-0.9-3.1h0l-0.4,1.5L66.7,71z M73,74.3v-7.5c0.6-0.1,1.4-0.2,2.4-0.2
					c1.2,0,2,0.2,2.5,0.6c0.5,0.4,0.8,0.9,0.8,1.6c0,0.4-0.1,0.8-0.4,1.1c-0.3,0.3-0.6,0.6-1,0.7v0c0.5,0.2,0.8,0.6,1,1.4
					c0.4,1.4,0.6,2.1,0.6,2.2h-1.8c-0.2-0.3-0.3-0.9-0.5-1.8c-0.1-0.5-0.2-0.8-0.4-1c-0.2-0.2-0.5-0.3-0.9-0.3h-0.5v3H73z M74.7,68
					v2.1h0.7c0.4,0,0.8-0.1,1-0.3c0.3-0.2,0.4-0.5,0.4-0.8c0-0.3-0.1-0.6-0.3-0.8c-0.2-0.2-0.6-0.3-1-0.3
					C75.1,67.9,74.8,67.9,74.7,68z M43.6,63.4l2.3,0c0.3-2-0.3-3.5-2.3-3.1c-1.7,0.3-3.5,2-4.6,3.1l3.1,0c0.3-0.2,1-0.5,1.3-0.3
					C43.5,63.2,43.6,63.3,43.6,63.4z M67.5,63.4L67.5,63.4L67.5,63.4c0.3,0,0.9-0.1,1.2-0.6c0.1-0.1,0.1-0.2,0.2-0.4
					c0-0.1,0.1-0.3,0.1-0.5h0l0,0c0.2-8.2-2.3-14.9-6.5-19.5c-0.8-0.9-1.7-1.7-2.7-2.4c-1-0.7-2-1.4-3-1.9v0l0,0l0,0
					c-3.6-1.8-7.6-2.5-11.6-2.2c-0.8,0.1-1.5,0.2-2.3,0.3c-0.8,0.1-1.5,0.3-2.3,0.5l0,0c-4.1,1.2-7.9,3.6-11,6.8
					c-0.6,0.6-1.2,1.3-1.7,1.9c-0.3,0.3-0.5,0.7-0.8,1c2.2-1.9,4.5-3.5,7-4.8c0.5-0.3,1.1-0.6,1.7-0.8c0.6-0.3,1.1-0.5,1.7-0.7l0,0
					l0,0c2.2-0.8,4.3-1.4,6.4-1.6c2.1-0.2,4.3-0.2,6.4,0.2c1.5,0.2,3,0.6,4.4,1.2c0.3,0.1,0.5,0.2,0.8,0.3c0.2,0.1,0.5,0.3,0.7,0.4
					h0l0,0v0c4.8,2.6,8.1,8,9.5,14c0.3,1.2,0.5,2.4,0.6,3.6c0.1,1.2,0.2,2.4,0.2,3.7v0l0,0.1c0,0.7,0.2,1.2,0.6,1.4
					c0.1,0,0.1,0.1,0.2,0.1h0C67.3,63.4,67.4,63.4,67.5,63.4z"/>
			</g>
		</g>
	</g>
</g>
</svg>
