<?xml version="1.0" encoding="utf-8"?>
<!-- Generator: Adobe Illustrator 24.1.1, SVG Export Plug-In . SVG Version: 6.00 Build 0)  -->
<svg version="1.1" id="Layer_1" xmlns="http://www.w3.org/2000/svg" xmlns:xlink="http://www.w3.org/1999/xlink" x="0px" y="0px"
	 viewBox="0 0 100 100" style="enable-background:new 0 0 100 100;" xml:space="preserve">
<style type="text/css">
	.st0{fill:#FFFFFF;}
	.st1{fill:#A4C639;}
	.st2{fill:#000069;}
</style>
<g>
	<path class="st0" d="M32.3,14.2c-0.4,0-0.7,0.1-1,0.2c-1.1,0.6-1.4,1.9-0.8,2.9l2.3,4.1c-5.6,3.5-9.3,9.4-9.3,16.1v0.1
		c0,0,0,0,0,0.1v0.1v1.1c-1.1-1.3-2.6-2-4.4-2c-3.2,0-5.8,2.6-5.8,5.8v17.9c0,3.2,2.6,5.8,5.8,5.8c1.7,0,3.3-0.8,4.4-2v2.5
		c0,3.4,2.8,6.2,6.2,6.2h1.6v8c0,3.2,2.6,5.8,5.8,5.8c3.2,0,5.8-2.6,5.8-5.8v-8h2.7v8c0,3.2,2.6,5.8,5.8,5.8c3.2,0,5.8-2.6,5.8-5.8
		v-8h1.6c3.4,0,6.2-2.8,6.2-6.2v-2.5c1.1,1.2,2.6,2,4.4,2c3.2,0,5.8-2.6,5.8-5.8V42.5c0-3.2-2.6-5.8-5.8-5.8c-1.7,0-3.3,0.8-4.4,2
		v-1l0,0v-0.1c0-0.1,0-0.2,0-0.2c0-6.7-3.7-12.5-9.2-15.9l2.3-4.1c0.6-1.1,0.2-2.3-0.8-2.9c-0.4-0.4-0.8-0.5-1.1-0.5
		c-0.8,0-1.5,0.4-1.9,1.1l-2.4,4.4c-2.4-0.9-5-1.4-7.6-1.4c-2.7,0-5.3,0.5-7.6,1.4l-2.4-4.4C33.7,14.5,33,14.2,32.3,14.2L32.3,14.2z
		"/>
	<path class="st1" d="M19.1,38.2c-2.4,0-4.3,1.9-4.3,4.3v17.9c0,2.4,1.9,4.3,4.3,4.3s4.3-1.9,4.3-4.3V42.5
		C23.4,40.1,21.5,38.2,19.1,38.2L19.1,38.2z M69.1,38.2c-2.4,0-4.3,1.9-4.3,4.3v17.9c0,2.4,1.9,4.3,4.3,4.3s4.3-1.9,4.3-4.3V42.5
		C73.4,40.1,71.5,38.2,69.1,38.2L69.1,38.2z"/>
	<path class="st1" d="M37,58.5c-2.4,0-4.3,1.9-4.3,4.3v17.9c0,2.4,1.9,4.3,4.3,4.3s4.3-1.9,4.3-4.3V62.8
		C41.3,60.4,39.3,58.5,37,58.5L37,58.5z M51.3,58.5c-2.4,0-4.3,1.9-4.3,4.3v17.9c0,2.4,1.9,4.3,4.3,4.3c2.4,0,4.3-1.9,4.3-4.3V62.8
		C55.6,60.4,53.7,58.5,51.3,58.5L51.3,58.5z"/>
	<path class="st1" d="M32.3,15.7c-0.1,0-0.2,0-0.3,0.1c-0.3,0.2-0.4,0.5-0.2,0.8l3,5.5c-5.8,3-9.8,8.8-9.8,15.3h38.2
		c0-6.6-3.9-12.3-9.8-15.3l3-5.5c0.2-0.3,0.1-0.7-0.2-0.8c-0.1,0-0.2-0.1-0.2-0.1c-0.2,0-0.5,0.1-0.5,0.3l-3.1,5.6
		c-2.5-1.1-5.3-1.7-8.3-1.7c-2.9,0-5.8,0.6-8.3,1.7L32.8,16C32.7,15.8,32.5,15.7,32.3,15.7L32.3,15.7z M25,38.9v27.7
		c0,2.6,2,4.7,4.7,4.7h29c2.6,0,4.7-2,4.7-4.7V38.9H25L25,38.9z"/>
	<path class="st0" d="M35.3,27.2c-0.9,0-1.6,0.8-1.6,1.6c0,0.9,0.8,1.6,1.6,1.6c0.8,0,1.6-0.8,1.6-1.6
		C36.9,27.9,36.2,27.2,35.3,27.2L35.3,27.2z M52.9,27.2c-0.9,0-1.6,0.8-1.6,1.6c0,0.9,0.8,1.6,1.6,1.6c0.8,0,1.6-0.8,1.6-1.6
		C54.5,27.9,53.8,27.2,52.9,27.2L52.9,27.2z"/>
</g>
<g>
	<path class="st2" d="M61.9,82.4c-0.4,0-0.7,0.1-1,0.2c-0.3,0.2-0.5,0.3-0.7,0.5v-0.7h-1.7v5h1.7v-2.7c0-0.3,0.1-0.6,0.3-0.8
		c0.2-0.2,0.5-0.3,0.8-0.3c0.3,0,0.6,0.1,0.8,0.3c0.2,0.2,0.3,0.5,0.3,0.8v2.7H64v-2.9c0-0.7-0.2-1.2-0.6-1.6
		C63.1,82.6,62.6,82.4,61.9,82.4z"/>
	<path class="st2" d="M84.2,79.9l3.6-17.8L68.8,62l-0.1,17.8h5.4L84.2,79.9z M71.6,64.8l12.3-0.1l-1.4,6l-10.9-0.1V64.8L71.6,64.8z
		 M71.7,73.5h10.5l-1.1,4.1l-9.5,0.1L71.7,73.5z"/>
	<path class="st2" d="M49.8,77.8v2.3h2.6h2l1.7-0.1L56,77.6l-1.3-0.1l-0.9-4.1h8.8l0.1,4.1h-2.6l0.1,2.5c2.6-0.1,3.3,0.1,5.9-0.1
		l0,0v-1.8l0,0V64.5c0.1-0.8,0.1-1.6,0.1-2.3c-3.7,0-5.9,0-9.5,0l0.1,2.6l6.2,0.1l-0.1,5.9l-9.3,0.1l-3.9-21.9h1.4v-2.6
		c-3.5-0.1-6.9-0.1-10.4-0.1l-0.1,2.5l5.5,0.1l5.3,28.9L49.8,77.8z"/>
	<path class="st2" d="M55.6,80.9c-0.6-0.3-1.3-0.5-2-0.5s-1.4,0.2-2,0.5s-1.1,0.7-1.5,1.3c-0.4,0.5-0.5,1.1-0.5,1.8
		c0,0.7,0.2,1.3,0.5,1.8c0.4,0.5,0.8,1,1.5,1.3c0.6,0.3,1.3,0.5,2,0.5s1.4-0.2,2-0.5c0.6-0.3,1.1-0.7,1.4-1.3s0.5-1.1,0.5-1.8
		c0-0.7-0.2-1.3-0.5-1.8C56.7,81.6,56.2,81.2,55.6,80.9z M55.1,85.4c-0.4,0.4-0.9,0.5-1.5,0.5s-1.1-0.2-1.5-0.5s-0.6-0.8-0.6-1.4
		c0-0.6,0.2-1.1,0.6-1.4c0.4-0.4,0.9-0.5,1.5-0.5s1.1,0.2,1.5,0.5c0.4,0.4,0.6,0.8,0.6,1.4C55.6,84.5,55.5,85.1,55.1,85.4z"/>
	<path class="st2" d="M84.6,80.5c-0.6-0.3-1.4-0.5-2.2-0.5s-1.6,0.2-2.2,0.5c-0.7,0.3-1.1,0.8-1.5,1.3c-0.4,0.5-0.5,1.2-0.5,2
		s0.2,1.4,0.5,2c0.4,0.5,0.8,1,1.5,1.3c0.6,0.3,1.4,0.5,2.2,0.5c0.7,0,1.3-0.1,1.8-0.3c0.5-0.2,1-0.5,1.4-0.9
		c0.4-0.4,0.6-0.8,0.8-1.3h-2.7c-0.2,0.5-0.7,0.7-1.4,0.7c-0.5,0-0.8-0.2-1.1-0.4c-0.3-0.2-0.5-0.6-0.5-1.1h5.8
		c0-0.2,0.1-0.5,0.1-0.7c0-0.7-0.2-1.4-0.5-1.9C85.7,81.3,85.2,80.8,84.6,80.5z M80.8,83.1c0.1-0.4,0.2-0.7,0.5-0.9
		c0.3-0.2,0.7-0.3,1.1-0.3c0.5,0,0.8,0.1,1.1,0.3c0.3,0.2,0.5,0.5,0.5,0.9H80.8L80.8,83.1z"/>
	<rect x="65.6" y="80.9" class="st2" width="1.7" height="6.6"/>
	<path class="st2" d="M70.3,80.6c-0.2-0.2-0.5-0.2-0.8-0.2s-0.5,0.1-0.8,0.2c-0.2,0.2-0.3,0.4-0.3,0.6c0,0.2,0.1,0.5,0.3,0.6
		c0.2,0.2,0.5,0.2,0.8,0.2s0.5-0.1,0.8-0.2c0.2-0.2,0.3-0.4,0.3-0.6C70.6,81,70.6,80.8,70.3,80.6z"/>
	<rect x="68.8" y="82.6" class="st2" width="1.7" height="5"/>
	<path class="st2" d="M75.4,82.4c-0.4,0-0.7,0.1-1,0.2c-0.3,0.2-0.5,0.3-0.7,0.5v-0.7H72v5h1.7v-2.7c0-0.3,0.1-0.6,0.3-0.8
		c0.2-0.2,0.5-0.3,0.8-0.3s0.6,0.1,0.8,0.3c0.2,0.2,0.3,0.5,0.3,0.8v2.7h1.7v-2.9c0-0.7-0.2-1.2-0.6-1.6
		C76.6,82.6,76.1,82.4,75.4,82.4z"/>
</g>
</svg>
