<?xml version="1.0" encoding="utf-8"?>
<!-- Generator: Adobe Illustrator 24.1.1, SVG Export Plug-In . SVG Version: 6.00 Build 0)  -->
<svg version="1.1" id="Layer_1" xmlns="http://www.w3.org/2000/svg" xmlns:xlink="http://www.w3.org/1999/xlink" x="0px" y="0px"
	 viewBox="0 0 80 80" style="enable-background:new 0 0 80 80;" xml:space="preserve">
<style type="text/css">
	.st0{fill:#FFDCC8;}
	.st1{fill:#00366D;}
	.st2{fill:#5FF9FE;}
	.st3{fill:#FFC5BB;}
	.st4{fill:#00DDE7;}
	.st5{fill:#FFADAD;}
	.st6{fill:#000069;}
	.st7{fill:#FF0033;}
</style>
<g>
	<path class="st0" d="M67.1,40v-9c0-3.7-3-6.8-6.8-6.8H43.8c-0.9,0-1.5,0.7-1.5,1.5c0,1,0.2,2,0.5,3h-32c-2.5,0-4.6,2.1-4.6,4.6
		c0,2.5,2.1,4.4,4.5,4.4h4.5v27.1h40.6h4.5c3.7,0,6.8-3,6.8-6.8h4.8c1.1,0,2-0.9,2-2V42c0-1.1-0.9-2-2-2L67.1,40L67.1,40z"/>
	<path class="st1" d="M49.8,6.1H21.2c-3.3,0-6,2.7-6,6v55.7c0,3.3,2.7,6,6,6h28.6c3.3,0,6-2.7,6-6V12.1C55.8,8.8,53.1,6.1,49.8,6.1z
		"/>
	<path class="st2" d="M49.6,10.1h-2.3v2.3c0,3.4-2.8,6.2-6.2,6.2H29.9c-3.4,0-6.2-2.8-6.2-6.2v-2.3h-2.3c-1.2,0-2.3,1-2.3,2.3v55.3
		c0,1.2,1,2.3,2.3,2.3h28.2c1.2,0,2.3-1,2.3-2.3V12.4C51.8,11.1,50.8,10.1,49.6,10.1L49.6,10.1z"/>
	<circle class="st3" cx="15.2" cy="60.3" r="4.5"/>
	<path class="st3" d="M20.8,46.8c2.5,0,4.5-2,4.5-4.5c0-2.5-2-4.5-4.5-4.5h-9c-2.5,0-4.5,2-4.5,4.5c0,2.5,2,4.5,4.5,4.5H14
		c-2.5,0-4.5,2-4.5,4.5c0,2.5,2,4.5,4.5,4.5h6.8c2.5,0,4.5-2,4.5-4.5C25.3,48.8,23.3,46.8,20.8,46.8L20.8,46.8z"/>
	<path class="st4" d="M39.7,65.4h-8.5c-1.1,0-2-0.9-2-2s0.9-2,2-2h8.5c1.1,0,2,0.9,2,2S40.8,65.4,39.7,65.4z"/>
	<path class="st3" d="M67.1,37.1V31c0-3.7-3-6.8-6.8-6.8H43.8c-0.9,0-1.5,0.7-1.5,1.5c0,5.4,4.4,9.8,9.8,9.8h3.8v29.4h4.5
		c3.7,0,6.8-3,6.8-6.8h4.8c1.1,0,2-0.9,2-2v-17c0-1.1-0.9-2-2-2H67.1z"/>
	<g>
		<path class="st5" d="M20.8,46.8H14c-2.5,0-4.5,2-4.5,4.5c0,2.5,2,4.5,4.5,4.5h6.8c2.5,0,4.5-2,4.5-4.5
			C25.3,48.8,23.3,46.8,20.8,46.8z"/>
		<path class="st5" d="M55.8,46.8v18.1h4.5c3.7,0,6.8-3,6.8-6.8h4.8c1.1,0,2-0.9,2-2v-9.3L55.8,46.8L55.8,46.8z"/>
	</g>
	<g>
		<path class="st6" d="M34.7,39.8c-0.1,0-0.1,0-0.2,0c-0.1,0-0.1,0.1-0.1,0.1v-0.1H34v1.1h0.4v-0.6c0-0.1,0-0.1,0.1-0.2
			c0,0,0.1-0.1,0.2-0.1c0.1,0,0.1,0,0.2,0.1c0,0,0.1,0.1,0.1,0.2v0.6h0.4v-0.6c0-0.1,0-0.3-0.1-0.3C35,39.9,34.8,39.8,34.7,39.8z"/>
		<path class="st6" d="M39.6,39.3l0.8-3.9l-4.2,0l0,3.9h1.2L39.6,39.3z M36.8,36l2.7,0l-0.3,1.3l-2.4,0V36L36.8,36z M36.9,37.9h2.3
			l-0.2,0.9l-2.1,0L36.9,37.9z"/>
		<path class="st6" d="M32,38.8v0.5h0.6H33l0.4,0l0-0.5l-0.3,0l-0.2-0.9h1.9l0,0.9h-0.6l0,0.5c0.6,0,0.7,0,1.3,0l0,0v-0.4l0,0l0-3
			c0-0.2,0-0.3,0-0.5c-0.8,0-1.3,0-2.1,0l0,0.6l1.3,0l0,1.3l-2,0L32,32.4h0.3v-0.6c-0.8,0-1.5,0-2.3,0l0,0.6l1.2,0l1.2,6.4H32z"/>
		<path class="st6" d="M33.3,39.5c-0.1-0.1-0.3-0.1-0.4-0.1s-0.3,0-0.4,0.1c-0.1,0.1-0.2,0.1-0.3,0.3C32,39.9,32,40,32,40.2
			c0,0.1,0,0.3,0.1,0.4c0.1,0.1,0.2,0.2,0.3,0.3s0.3,0.1,0.4,0.1s0.3,0,0.4-0.1c0.1-0.1,0.2-0.1,0.3-0.3s0.1-0.3,0.1-0.4
			c0-0.1,0-0.3-0.1-0.4C33.6,39.7,33.5,39.6,33.3,39.5z M33.2,40.5c-0.1,0.1-0.2,0.1-0.3,0.1s-0.3,0-0.3-0.1
			c-0.1-0.1-0.1-0.2-0.1-0.3s0-0.2,0.1-0.3c0.1-0.1,0.2-0.1,0.3-0.1s0.3,0,0.3,0.1c0.1,0.1,0.1,0.2,0.1,0.3
			C33.3,40.3,33.3,40.4,33.2,40.5z"/>
		<path class="st6" d="M39.7,39.4c-0.1-0.1-0.3-0.1-0.5-0.1c-0.2,0-0.3,0-0.5,0.1c-0.1,0.1-0.3,0.2-0.3,0.3s-0.1,0.3-0.1,0.4
			c0,0.2,0,0.3,0.1,0.4c0.1,0.1,0.2,0.2,0.3,0.3c0.1,0.1,0.3,0.1,0.5,0.1c0.1,0,0.3,0,0.4-0.1c0.1,0,0.2-0.1,0.3-0.2
			c0.1-0.1,0.1-0.2,0.2-0.3h-0.6c-0.1,0.1-0.1,0.1-0.3,0.1c-0.1,0-0.2,0-0.2-0.1c-0.1,0-0.1-0.1-0.1-0.2h1.3c0,0,0-0.1,0-0.1
			c0-0.1,0-0.3-0.1-0.4C39.9,39.6,39.8,39.5,39.7,39.4z M38.8,40c0-0.1,0.1-0.1,0.1-0.2c0.1,0,0.1-0.1,0.2-0.1c0.1,0,0.2,0,0.2,0.1
			c0.1,0,0.1,0.1,0.1,0.2H38.8L38.8,40z"/>
		<rect x="35.5" y="39.5" class="st6" width="0.4" height="1.5"/>
		<path class="st6" d="M36.6,39.4c0,0-0.1,0-0.2,0c-0.1,0-0.1,0-0.2,0c0,0-0.1,0.1-0.1,0.1s0,0.1,0.1,0.1c0,0,0.1,0,0.2,0
			c0.1,0,0.1,0,0.2,0c0,0,0.1-0.1,0.1-0.1S36.6,39.5,36.6,39.4z"/>
		<rect x="36.2" y="39.9" class="st6" width="0.4" height="1.1"/>
		<path class="st6" d="M37.7,39.8c-0.1,0-0.1,0-0.2,0c-0.1,0-0.1,0.1-0.1,0.1v-0.1h-0.4v1.1h0.4v-0.6c0-0.1,0-0.1,0.1-0.2
			c0,0,0.1-0.1,0.2-0.1c0.1,0,0.1,0,0.2,0.1c0,0,0.1,0.1,0.1,0.2v0.6h0.4v-0.6c0-0.1,0-0.3-0.1-0.3C37.9,39.9,37.8,39.8,37.7,39.8z"
			/>
	</g>
	<g>
		<path class="st7" d="M28.5,43.1v1.7h-0.5v-0.7h-0.6v0.7H27v-1.7h0.5v0.6h0.6v-0.6H28.5z"/>
		<path class="st7" d="M30.2,43.4v1.3h-0.5v-0.2c0,0.1-0.1,0.1-0.2,0.1c-0.1,0-0.1,0.1-0.2,0.1c-0.1,0-0.3,0-0.4-0.1
			c-0.1-0.1-0.1-0.2-0.1-0.4v-0.8h0.5v0.7c0,0.1,0,0.1,0.1,0.2c0,0,0.1,0.1,0.2,0.1s0.1,0,0.2-0.1s0.1-0.1,0.1-0.2v-0.7H30.2z"/>
		<path class="st7" d="M32.6,43.6c0.1,0.1,0.1,0.2,0.1,0.4v0.8h-0.5V44c0-0.1,0-0.1-0.1-0.2c0,0-0.1-0.1-0.2-0.1
			c-0.1,0-0.1,0-0.2,0.1S31.8,44,31.8,44v0.7h-0.5V44c0-0.1,0-0.1-0.1-0.2c0,0-0.1-0.1-0.2-0.1s-0.1,0-0.2,0.1S30.9,44,30.9,44v0.7
			h-0.5v-1.3h0.5v0.2c0-0.1,0.1-0.1,0.2-0.1s0.1,0,0.2,0c0.1,0,0.2,0,0.3,0.1c0.1,0,0.1,0.1,0.2,0.2c0-0.1,0.1-0.1,0.2-0.2
			c0.1,0,0.2-0.1,0.3-0.1C32.4,43.4,32.5,43.5,32.6,43.6z"/>
		<path class="st7" d="M34.3,44c0.1,0.1,0.1,0.2,0.1,0.3c0,0.1,0,0.3-0.1,0.3c-0.1,0.1-0.2,0.1-0.4,0.1H33v-1.7h0.8
			c0.2,0,0.3,0,0.4,0.1s0.1,0.2,0.1,0.3c0,0.1,0,0.2-0.1,0.2c0,0.1-0.1,0.1-0.2,0.1C34.2,43.9,34.2,44,34.3,44z M33.5,43.7h0.2
			c0.1,0,0.2,0,0.2-0.1s-0.1-0.1-0.2-0.1h-0.2V43.7z M33.9,44.2c0,0,0-0.1,0-0.1c0,0-0.1,0-0.1,0h-0.3v0.3h0.3
			C33.8,44.4,33.9,44.3,33.9,44.2z"/>
		<path class="st7" d="M35.8,43.6c0.1,0.1,0.1,0.2,0.1,0.4v0.8h-0.5V44c0-0.1,0-0.1-0.1-0.2c0,0-0.1-0.1-0.2-0.1s-0.1,0-0.2,0.1
			c0,0-0.1,0.1-0.1,0.2v0.7h-0.5V43H35v0.6c0-0.1,0.1-0.1,0.2-0.1c0.1,0,0.1-0.1,0.2-0.1C35.6,43.4,35.7,43.5,35.8,43.6z"/>
		<path class="st7" d="M36.3,43.2c0,0-0.1-0.1-0.1-0.2c0-0.1,0-0.1,0.1-0.2c0,0,0.1-0.1,0.2-0.1s0.1,0,0.2,0.1c0,0,0.1,0.1,0.1,0.2
			s0,0.1-0.1,0.2c0,0-0.1,0.1-0.2,0.1C36.4,43.3,36.3,43.3,36.3,43.2z M36.7,43.4v1.3h-0.5v-1.3H36.7z"/>
		<path d="M37.3,44.7c-0.1-0.1-0.2-0.2-0.3-0.3s-0.1-0.3-0.1-0.4c0-0.2,0-0.3,0.1-0.4s0.2-0.2,0.3-0.3c0.1-0.1,0.3-0.1,0.4-0.1
			c0.2,0,0.3,0,0.4,0.1c0.1,0.1,0.2,0.2,0.3,0.3c0.1,0.1,0.1,0.3,0.1,0.4c0,0.2,0,0.3-0.1,0.4s-0.2,0.2-0.3,0.3
			c-0.1,0.1-0.3,0.1-0.4,0.1C37.6,44.8,37.5,44.7,37.3,44.7z M38,44.2c0.1-0.1,0.1-0.2,0.1-0.3s0-0.2-0.1-0.3s-0.2-0.1-0.3-0.1
			s-0.2,0-0.3,0.1s-0.1,0.2-0.1,0.3s0,0.2,0.1,0.3s0.2,0.1,0.3,0.1C37.9,44.3,38,44.3,38,44.2z"/>
		<path d="M40.1,43.6c0.1,0.1,0.1,0.2,0.1,0.4v0.8h-0.5V44c0-0.1,0-0.1-0.1-0.2c0,0-0.1-0.1-0.2-0.1s-0.1,0-0.2,0.1S39.3,44,39.3,44
			v0.7h-0.5v-1.3h0.5v0.2c0-0.1,0.1-0.1,0.2-0.1c0.1,0,0.1-0.1,0.2-0.1C39.8,43.4,40,43.5,40.1,43.6z"/>
		<path d="M40.9,43v1.8h-0.5V43H40.9z"/>
		<path d="M41.2,43.2c0,0-0.1-0.1-0.1-0.2c0-0.1,0-0.1,0.1-0.2c0,0,0.1-0.1,0.2-0.1s0.1,0,0.2,0.1c0,0,0.1,0.1,0.1,0.2
			s0,0.1-0.1,0.2c0,0-0.1,0.1-0.2,0.1C41.3,43.3,41.3,43.3,41.2,43.2z M41.6,43.4v1.3h-0.5v-1.3H41.6z"/>
		<path d="M43.2,43.6c0.1,0.1,0.1,0.2,0.1,0.4v0.8h-0.5V44c0-0.1,0-0.1-0.1-0.2c0,0-0.1-0.1-0.2-0.1s-0.1,0-0.2,0.1
			c0,0-0.1,0.1-0.1,0.2v0.7h-0.5v-1.3h0.5v0.2c0-0.1,0.1-0.1,0.2-0.1c0.1,0,0.1-0.1,0.2-0.1C42.9,43.4,43.1,43.5,43.2,43.6z"/>
		<path d="M44.8,44.2h-0.9c0,0.1,0,0.1,0.1,0.2c0,0,0.1,0.1,0.1,0.1c0.1,0,0.1,0,0.2-0.1h0.5c0,0.1-0.1,0.2-0.1,0.2
			c-0.1,0.1-0.1,0.1-0.2,0.2c-0.1,0-0.2,0.1-0.3,0.1c-0.1,0-0.3,0-0.3-0.1c-0.1-0.1-0.2-0.1-0.2-0.2c-0.1-0.1-0.1-0.2-0.1-0.4
			s0-0.3,0.1-0.4c0.1-0.1,0.1-0.2,0.2-0.2s0.2-0.1,0.4-0.1s0.3,0,0.3,0.1c0.1,0.1,0.2,0.1,0.2,0.2c0.1,0.1,0.1,0.2,0.1,0.4
			C44.8,44.1,44.8,44.2,44.8,44.2z M44.3,44c0-0.1,0-0.1-0.1-0.1s-0.1,0-0.1,0s-0.1,0-0.1,0c0,0-0.1,0.1-0.1,0.1H44.3z"/>
	</g>
</g>
</svg>
