<?xml version="1.0" encoding="utf-8"?>
<!-- Generator: Adobe Illustrator 24.1.1, SVG Export Plug-In . SVG Version: 6.00 Build 0)  -->
<svg version="1.1" id="Capa_1" xmlns="http://www.w3.org/2000/svg" xmlns:xlink="http://www.w3.org/1999/xlink" x="0px" y="0px"
	 viewBox="0 0 80 80" style="enable-background:new 0 0 80 80;" xml:space="preserve">
<style type="text/css">
	.st0{opacity:0.1;fill:#2626BC;enable-background:new    ;}
	.st1{fill:url(#SVGID_1_);}
	.st2{fill:#FFFFFF;}
	.st3{fill:#DCFDEE;}
	.st4{fill:#2626BC;}
	.st5{fill:#8399FE;}
	.st6{fill:#01ECA5;}
	.st7{fill:#6583FE;}
	.st8{fill:#4369FD;}
	.st9{fill:#00ECA2;}
	.st10{fill:#FF7EB8;}
</style>
<g>
	<path class="st0" d="M56.2,24.9L56.2,24.9V14.1c0-0.8-0.6-1.4-1.4-1.4H25.2c-0.8,0-1.4,0.6-1.4,1.4v56.3c0,0.5,0.5,0.8,1,0.6l1.9-1
		c0.2-0.1,0.5-0.1,0.6,0l2.6,1.4c0.2,0.1,0.5,0.1,0.6,0l2.6-1.4c0.2-0.1,0.5-0.1,0.6,0l2.6,1.4c0.2,0.1,0.5,0.1,0.6,0l2.6-1.4
		c0.2-0.1,0.5-0.1,0.6,0l2.6,1.4c0.2,0.1,0.5,0.1,0.6,0l2.6-1.4c0.2-0.1,0.5-0.1,0.6,0l2.6,1.4c0.2,0.1,0.5,0.1,0.6,0l2.6-1.4
		c0.2-0.1,0.5-0.1,0.6,0l1.9,1c0.5,0.2,1-0.1,1-0.6V39.6l0,0c4,0,7.3-3.3,7.3-7.3C63.5,28.2,60.3,24.9,56.2,24.9L56.2,24.9z"/>
	<linearGradient id="SVGID_1_" gradientUnits="userSpaceOnUse" x1="3.4401" y1="25.8293" x2="68.9508" y2="57.3121">
		<stop  offset="0" style="stop-color:#C6D1FF"/>
		<stop  offset="0.5834" style="stop-color:#E6D5F4"/>
		<stop  offset="0.997" style="stop-color:#FFD9EC"/>
	</linearGradient>
	<path class="st1" d="M69.7,23.1c-9-6.9-17.7-1.3-27.6-3.3c-9.7-2.1-13.7-8.8-24.9-5.6C7.3,16.9,1.3,27.9,6.7,37.1
		c1.5,2.6,4.2,4.6,5.3,7.5c1.8,4.7-0.9,8.4-0.4,13c2.1,19.3,31.7,11.8,42.5,5.9C71.2,54.1,82.7,33.1,69.7,23.1z"/>
	<g>
		<path class="st2" d="M56.2,10.7V67c0,0.5-0.5,0.8-1,0.6l-1.9-1c-0.2-0.1-0.5-0.1-0.6,0L50.1,68c-0.2,0.1-0.5,0.1-0.6,0l-2.6-1.4
			c-0.2-0.1-0.5-0.1-0.6,0L43.7,68c-0.2,0.1-0.5,0.1-0.6,0l-2.6-1.4c-0.2-0.1-0.5-0.1-0.6,0L37.3,68c-0.2,0.1-0.5,0.1-0.6,0
			l-2.6-1.4c-0.2-0.1-0.5-0.1-0.6,0L30.9,68c-0.2,0.1-0.5,0.1-0.6,0l-2.6-1.4c-0.2-0.1-0.5-0.1-0.6,0l-2.4,0.9c-0.5,0.2-1-0.1-1-0.6
			V10.7c0-0.8,0.6-1.4,1.4-1.4h29.7C55.6,9.3,56.2,9.9,56.2,10.7L56.2,10.7z"/>
		<path class="st3" d="M56.2,24.6v14.7c-4,0-7.3-3.3-7.3-7.3S52.2,24.6,56.2,24.6z"/>
		<path class="st4" d="M43.3,68.6c-0.2,0-0.5-0.1-0.6-0.2L40,67.2l-2.6,1.4c-0.4,0.2-0.8,0.2-1.2,0l-2.6-1.4l-2.7,1.3
			c-0.4,0.2-0.8,0.2-1.2,0l-2.6-1.3l-2,1c-0.5,0.2-0.9,0.2-1.4-0.1C23.2,67.8,23,67.4,23,67V10.7c0-1.1,0.9-2.1,2.1-2.1h6.8
			c0.4,0,0.7,0.3,0.7,0.7c0,0.4-0.3,0.7-0.7,0.7h-6.8c-0.4,0-0.7,0.3-0.7,0.7V67l1.9-1c0.4-0.2,0.8-0.2,1.2,0l2.6,1.4l2.6-1.4
			c0.4-0.2,0.8-0.2,1.2,0l2.6,1.4l2.6-1.4c0.4-0.2,0.8-0.2,1.2,0l2.6,1.4l2.6-1.4c0.4-0.2,0.8-0.2,1.2,0l2.6,1.4l2.6-1.4
			c0.4-0.2,0.8-0.2,1.2,0l1.9,1V40.3c0-0.4,0.3-0.7,0.7-0.7s0.7,0.3,0.7,0.7V67c0,0.5-0.2,0.9-0.7,1.1c-0.4,0.2-0.9,0.3-1.4,0.1
			l-1.4-1l-2.6,1.4c-0.4,0.2-0.8,0.2-1.2,0l-2.6-1.4L44,68.6C43.7,68.6,43.4,68.6,43.3,68.6L43.3,68.6z"/>
	</g>
	<g>
		<g>
			<g>
				<path class="st5" d="M40.7,34.8h-12c-0.4,0-0.7-0.3-0.7-0.7s0.3-0.7,0.7-0.7h12c0.4,0,0.7,0.3,0.7,0.7S41.1,34.8,40.7,34.8z"/>
			</g>
			<g>
				<path class="st6" d="M30.3,32h-1.6c-0.4,0-0.7-0.3-0.7-0.7s0.3-0.7,0.7-0.7h1.6c0.4,0,0.7,0.3,0.7,0.7S30.7,32,30.3,32z"/>
			</g>
		</g>
		<g>
			<g>
				<path class="st5" d="M43.4,41H28.7c-0.4,0-0.7-0.3-0.7-0.7s0.3-0.7,0.7-0.7h14.7c0.4,0,0.7,0.3,0.7,0.7
					C44.1,40.7,43.8,41,43.4,41z"/>
			</g>
			<g>
				<path class="st6" d="M30.3,38.3h-1.6c-0.4,0-0.7-0.3-0.7-0.7s0.3-0.7,0.7-0.7h1.6c0.4,0,0.7,0.3,0.7,0.7S30.7,38.3,30.3,38.3z"
					/>
			</g>
		</g>
		<g>
			<g>
				<path class="st5" d="M42.1,47.2H28.7c-0.4,0-0.7-0.3-0.7-0.7s0.3-0.7,0.7-0.7h13.3c0.4,0,0.7,0.3,0.7,0.7S42.4,47.2,42.1,47.2z"
					/>
			</g>
			<g>
				<path class="st6" d="M30.3,44.5h-1.6c-0.4,0-0.7-0.3-0.7-0.7s0.3-0.7,0.7-0.7h1.6c0.4,0,0.7,0.3,0.7,0.7S30.7,44.5,30.3,44.5z"
					/>
			</g>
		</g>
		<g>
			<g>
				<path class="st5" d="M36.6,53.6h-7.8c-0.4,0-0.7-0.3-0.7-0.7s0.3-0.7,0.7-0.7h7.8c0.4,0,0.7,0.3,0.7,0.7S37,53.6,36.6,53.6z"/>
			</g>
			<g>
				<path class="st5" d="M42.9,53.6h-3c-0.4,0-0.7-0.3-0.7-0.7s0.3-0.7,0.7-0.7h3c0.4,0,0.7,0.3,0.7,0.7S43.3,53.6,42.9,53.6z"/>
			</g>
			<g>
				<path class="st6" d="M30.3,50.7h-1.6c-0.4,0-0.7-0.3-0.7-0.7s0.3-0.7,0.7-0.7h1.6c0.4,0,0.7,0.3,0.7,0.7
					C31,50.4,30.7,50.7,30.3,50.7z"/>
			</g>
		</g>
		<g>
			<g>
				<g>
					<path class="st5" d="M50.8,34.8h-2.3c-0.4,0-0.7-0.3-0.7-0.7s0.3-0.7,0.7-0.7h2.3c0.4,0,0.7,0.3,0.7,0.7S51.2,34.8,50.8,34.8z"
						/>
				</g>
			</g>
			<g>
				<g>
					<path class="st7" d="M51.5,34.1c0,0.4-0.3,0.7-0.7,0.7h-1.4c-0.2-0.5-0.3-0.9-0.4-1.4h1.8C51.2,33.4,51.5,33.7,51.5,34.1
						L51.5,34.1z"/>
				</g>
			</g>
			<g>
				<g>
					<path class="st5" d="M50.8,41h-2.3c-0.4,0-0.7-0.3-0.7-0.7s0.3-0.7,0.7-0.7h2.3c0.4,0,0.7,0.3,0.7,0.7
						C51.5,40.7,51.2,41,50.8,41z"/>
				</g>
			</g>
			<g>
				<g>
					<path class="st5" d="M50.8,47.2h-2.3c-0.4,0-0.7-0.3-0.7-0.7s0.3-0.7,0.7-0.7h2.3c0.4,0,0.7,0.3,0.7,0.7S51.2,47.2,50.8,47.2z"
						/>
				</g>
			</g>
			<g>
				<g>
					<path class="st5" d="M50.8,53.6h-2.3c-0.4,0-0.7-0.3-0.7-0.7s0.3-0.7,0.7-0.7h2.3c0.4,0,0.7,0.3,0.7,0.7S51.2,53.6,50.8,53.6z"
						/>
				</g>
			</g>
		</g>
		<g>
			<path class="st6" d="M50.6,50.8c-0.4,0-0.7-0.3-0.7-0.7l0,0c0-0.4,0.3-0.7,0.7-0.7s0.7,0.3,0.7,0.7l0,0
				C51.3,50.5,51,50.8,50.6,50.8z"/>
		</g>
		<g>
			<g>
				<path class="st5" d="M50.8,61.6h-3.3c-0.4,0-0.7-0.3-0.7-0.7s0.3-0.7,0.7-0.7h3.3c0.4,0,0.7,0.3,0.7,0.7S51.2,61.6,50.8,61.6
					L50.8,61.6z"/>
			</g>
		</g>
		<g>
			<g>
				<path class="st5" d="M33.5,61.6h-4.7c-0.4,0-0.7-0.3-0.7-0.7s0.3-0.7,0.7-0.7h4.7c0.4,0,0.7,0.3,0.7,0.7S33.8,61.6,33.5,61.6z"
					/>
			</g>
		</g>
		<g>
			<path class="st6" d="M50.6,44.5c-0.4,0-0.7-0.3-0.7-0.7l0,0c0-0.4,0.3-0.7,0.7-0.7s0.7,0.3,0.7,0.7l0,0
				C51.3,44.2,51,44.5,50.6,44.5z"/>
		</g>
		<g>
			<path class="st6" d="M50.6,38.3c-0.4,0-0.7-0.3-0.7-0.7l0,0c0-0.4,0.3-0.7,0.7-0.7s0.7,0.3,0.7,0.7l0,0
				C51.3,38,51,38.3,50.6,38.3z"/>
		</g>
		<g>
			<path class="st6" d="M50.6,32c-0.4,0-0.7-0.3-0.7-0.7l0,0c0-0.4,0.3-0.7,0.7-0.7s0.7,0.3,0.7,0.7l0,0C51.3,31.7,51,32,50.6,32z"
				/>
		</g>
	</g>
	<circle class="st6" cx="56.2" cy="28.8" r="7.3"/>
	<path class="st4" d="M56.9,20.8V10.7c0-1.1-0.9-2.1-2.1-2.1H36c-0.4,0-0.7,0.3-0.7,0.7c0,0.4,0.3,0.7,0.7,0.7h18.9
		c0.4,0,0.7,0.3,0.7,0.7v10.1c-4.1,0.4-7.3,3.8-7.3,8c0,4.4,3.6,8.1,8.1,8.1c4.4,0,8.1-3.6,8.1-8.1C64.2,24.6,61,21.2,56.9,20.8z
		 M56.2,35.5c-3.7,0-6.6-3-6.6-6.6s3-6.6,6.6-6.6c3.7,0,6.6,3,6.6,6.6S59.9,35.5,56.2,35.5z"/>
	<g>
		<path class="st5" d="M42.9,26.6h-5.7c-0.4,0-0.7-0.3-0.7-0.7s0.3-0.7,0.7-0.7h5.7c0.4,0,0.7,0.3,0.7,0.7
			C43.6,26.3,43.3,26.6,42.9,26.6z"/>
	</g>
	<g>
		<path class="st8" d="M46.6,21.5H33.4c-0.4,0-0.7-0.3-0.7-0.7c0-0.4,0.3-0.7,0.7-0.7h13.3c0.4,0,0.7,0.3,0.7,0.7
			C47.3,21.2,47,21.5,46.6,21.5z"/>
	</g>
	<g>
		<path class="st8" d="M50.1,18.5H29.9c-0.4,0-0.7-0.3-0.7-0.7c0-0.4,0.3-0.7,0.7-0.7H50c0.4,0,0.7,0.3,0.7,0.7
			C50.8,18.2,50.5,18.5,50.1,18.5z"/>
	</g>
	<g>
		<path class="st6" d="M30.3,15.4h-1.6c-0.4,0-0.7-0.3-0.7-0.7c0-0.4,0.3-0.7,0.7-0.7h1.6c0.4,0,0.7,0.3,0.7,0.7
			C31,15.1,30.7,15.4,30.3,15.4z"/>
	</g>
	<path class="st9" d="M19.2,36.7c-0.5,0-1-0.2-1.4-0.6c-0.8-0.8-0.8-2.1,0-2.8c0.8-0.8,2.1-0.8,2.8,0c0.8,0.8,0.8,2.1,0,2.8
		C20.3,36.6,19.7,36.7,19.2,36.7L19.2,36.7z M19.2,34.1c-0.2,0-0.3,0.1-0.5,0.2c-0.2,0.2-0.2,0.6,0,0.9c0.2,0.2,0.6,0.2,0.9,0
		c0.2-0.2,0.2-0.6,0-0.9C19.5,34.2,19.4,34.1,19.2,34.1z"/>
	<path class="st10" d="M64.9,22.8c-0.5,0-1-0.2-1.4-0.6c-0.4-0.4-0.6-0.9-0.6-1.4s0.2-1.1,0.6-1.4c0.8-0.8,2.1-0.8,2.8,0
		c0.4,0.4,0.6,0.9,0.6,1.4c0,0.5-0.2,1.1-0.6,1.4C65.9,22.7,65.4,22.8,64.9,22.8z M64.9,20.2c-0.2,0-0.3,0.1-0.5,0.2
		c-0.2,0.2-0.2,0.3-0.2,0.5c0,0.2,0.1,0.3,0.2,0.5c0.2,0.2,0.6,0.2,0.9,0c0.2-0.2,0.2-0.3,0.2-0.5c0-0.2-0.1-0.3-0.2-0.5
		C65.2,20.2,65,20.2,64.9,20.2z"/>
	<path class="st7" d="M18.3,43.6c-0.2,0-0.4-0.1-0.5-0.2L17,42.5l-0.8,0.8c-0.3,0.3-0.7,0.3-1,0c-0.3-0.3-0.3-0.7,0-1l1.3-1.3
		c0.3-0.3,0.7-0.3,1,0l1.3,1.3c0.3,0.3,0.3,0.7,0,1C18.7,43.5,18.5,43.6,18.3,43.6z"/>
	<g>
		<path class="st2" d="M58.4,27.1h-0.6c-0.1-0.4-0.2-0.7-0.4-0.9h1c0.2,0,0.4-0.2,0.4-0.4s-0.2-0.4-0.4-0.4h-3.2l0,0l0,0h-1.5
			c-0.2,0-0.4,0.2-0.4,0.4s0.2,0.4,0.4,0.4h1.8c0.6,0.1,1.2,0.2,1.4,0.9h-3.2c-0.2,0-0.4,0.2-0.4,0.4s0.2,0.4,0.4,0.4h3
			c-0.2,0.5-0.8,0.8-1.4,0.8h-0.8l0,0H54c-0.2,0-0.4,0.2-0.4,0.4s0.2,0.4,0.4,0.4h0.5l0,0h0.8c0.8,0,1.1,0.4,1.4,1.4
			c0.2,0.7,0.3,1.2,0.4,1.4c0.1,0.2,0.2,0.7,0.5,0.9c0.1,0.1,0.2,0.2,0.3,0.2c0.2,0,0.2-0.1,0.4-0.2c0.2-0.2,0.2-0.5,0-0.7l0,0
			c-0.2-0.3-0.3-1-0.5-2c-0.2-0.8-0.5-1.2-1-1.4c0.6-0.2,1.1-0.7,1.2-1.3h0.7c0.2,0,0.4-0.2,0.4-0.4C58.9,27.2,58.7,27.1,58.4,27.1z
			"/>
	</g>
	<path class="st2" d="M12.2,27.9c-0.5,0-1-0.2-1.4-0.6c-0.8-0.8-0.8-2.1,0-2.8c0.8-0.8,2.1-0.8,2.8,0c0.8,0.8,0.8,2.1,0,2.8
		C13.3,27.7,12.7,27.9,12.2,27.9L12.2,27.9z M12.2,25.3c-0.2,0-0.3,0.1-0.5,0.2c-0.2,0.2-0.2,0.6,0,0.9c0.2,0.2,0.6,0.2,0.9,0
		c0.2-0.2,0.2-0.6,0-0.9C12.6,25.3,12.4,25.3,12.2,25.3z"/>
</g>
</svg>
