<?xml version="1.0" encoding="utf-8"?>
<!-- Generator: Adobe Illustrator 24.1.1, SVG Export Plug-In . SVG Version: 6.00 Build 0)  -->
<svg version="1.1" id="Layer_1" xmlns="http://www.w3.org/2000/svg" xmlns:xlink="http://www.w3.org/1999/xlink" x="0px" y="0px"
	 viewBox="0 0 100 100" style="enable-background:new 0 0 100 100;" xml:space="preserve">
<style type="text/css">
	.st0{fill:#FFE6AC;}
	.st1{fill:#BF894B;}
	.st2{fill:#D2D2D2;}
	.st3{opacity:0.2;enable-background:new    ;}
	.st4{fill:#4A4349;}
	.st5{fill:#D7D7D7;}
	.st6{fill:#F0F0F0;}
	.st7{fill:#E6E6E6;}
	.st8{fill:#A4A9AE;}
	.st9{fill:#9ED9DD;}
	.st10{opacity:0.3;fill:#FFFFFF;enable-background:new    ;}
	.st11{opacity:0.2;fill:#FFFFFF;enable-background:new    ;}
	.st12{fill:#D99B55;}
	.st13{fill:#A37540;}
	.st14{fill:#E0BD00;}
	.st15{fill:#F8D519;}
	.st16{fill:#E1E2E7;}
	.st17{fill:#08A2C5;}
	.st18{opacity:0.3;enable-background:new    ;}
	.st19{fill:#BBB7BF;}
	.st20{opacity:0.3;}
	.st21{fill:#FF7F00;}
	.st22{fill:#4239FF;}
	.st23{fill:#E1E1E1;}
	.st24{fill:#FFFFFF;}
</style>
<polygon class="st0" points="74.8,25 74.8,74.1 37.3,74.1 37.3,25 56.1,10.5 "/>
<rect x="37.3" y="69.8" class="st1" width="37.5" height="4.1"/>
<rect x="37.3" y="25" class="st2" width="0.7" height="49"/>
<rect x="74.1" y="25" class="st2" width="0.7" height="49"/>
<polygon class="st3" points="56.1,10.5 37.3,25 37.3,26.2 37.3,29.5 56.7,14.9 74.8,28 74.8,26 74.8,25 "/>
<polygon class="st2" points="74.8,28.1 74.8,26.9 56.1,12.4 37.3,26.9 37.3,28.1 34.5,28.1 34.5,26 56.1,8.7 77.6,26 77.6,28.1 "/>
<polygon class="st4" points="34.4,26.7 33.9,26 56.1,8.2 78.2,26 77.7,26.7 56.1,9.2 "/>
<rect x="59.4" y="30.1" class="st5" width="11.8" height="14.5"/>
<path class="st6" d="M71,44.6H59.6V30.3H71V44.6z M59.7,44.5h11.1V30.4H59.7V44.5z"/>
<g>
	<rect x="60" y="30.7" class="st7" width="10.4" height="13.6"/>
	<path class="st8" d="M70.5,44.5H59.9V30.7h10.5v13.8H70.5z M60.1,44.3h10.3V30.8H60.1C60.1,30.8,60.1,44.3,60.1,44.3z"/>
</g>
<rect x="60.5" y="31.3" class="st9" width="9.4" height="12.6"/>
<g>
	<rect x="60.5" y="35.6" class="st7" width="9.4" height="0.6"/>
	<rect x="60.5" y="36.2" class="st3" width="9.4" height="0.1"/>
</g>
<polygon class="st3" points="60.8,31.5 69.9,31.5 69.9,31.3 60.5,31.3 60.5,43.9 60.8,43.9 "/>
<polygon class="st7" points="71.8,44.5 58.7,44.5 59.3,45.1 71.3,45.1 "/>
<rect x="59.3" y="45.1" class="st5" width="12" height="0.5"/>
<rect x="59.3" y="45.1" class="st3" width="12" height="0.1"/>
<polygon class="st10" points="67.4,31.3 60.5,39.6 60.5,36.1 64.3,31.3 "/>
<polygon class="st10" points="69.2,31.3 60.5,42.8 60.5,41.2 68.4,31.3 "/>
<g>
	<rect x="59.9" y="41.3" class="st8" width="0.2" height="1.7"/>
	<rect x="59.9" y="32.1" class="st8" width="0.2" height="1.7"/>
</g>
<rect x="59.4" y="44.4" class="st3" width="11.8" height="0.2"/>
<rect x="41" y="30.3" class="st5" width="11.8" height="14.5"/>
<path class="st6" d="M52.6,44.8H41.2V30.5h11.4V44.8z M41.3,44.7h11.1V30.6H41.3V44.7z"/>
<g>
	<rect x="41.6" y="31" class="st7" width="10.4" height="13.6"/>
	<path class="st8" d="M52.2,44.7H41.6V30.9h10.5C52.2,30.9,52.2,44.7,52.2,44.7z M41.7,44.5h10.3V31H41.7V44.5z"/>
</g>
<rect x="42.2" y="31.5" class="st9" width="9.4" height="12.6"/>
<g>
	<rect x="42.2" y="35.8" class="st7" width="9.4" height="0.6"/>
	<rect x="42.2" y="36.4" class="st3" width="9.4" height="0.1"/>
</g>
<polygon class="st3" points="42.4,31.7 51.5,31.7 51.5,31.5 42.2,31.5 42.2,44.1 42.4,44.1 "/>
<polygon class="st7" points="53.4,44.7 40.3,44.7 40.9,45.3 52.9,45.3 "/>
<rect x="40.9" y="45.3" class="st5" width="12" height="0.5"/>
<rect x="40.9" y="45.3" class="st3" width="12" height="0.1"/>
<polygon class="st10" points="49.2,31.5 42.2,39.8 42.2,36.3 46,31.5 "/>
<polygon class="st10" points="50.8,31.5 42.2,43 42.2,41.4 50,31.5 "/>
<g>
	<rect x="41.5" y="41.5" class="st8" width="0.2" height="1.7"/>
	<rect x="41.5" y="32.3" class="st8" width="0.2" height="1.7"/>
</g>
<rect x="41" y="44.6" class="st3" width="11.8" height="0.2"/>
<rect x="63" y="50.5" class="st5" width="8.2" height="14.5"/>
<path class="st6" d="M71,65.1h-7.7V50.6H71V65.1z M63.3,64.9h7.4v-14h-7.4C63.3,50.8,63.3,64.9,63.3,64.9z"/>
<g>
	<rect x="63.6" y="51.1" class="st7" width="6.8" height="13.6"/>
	<path class="st8" d="M70.5,64.9h-6.9V51h6.9V64.9z M63.7,64.8h6.6V51.2h-6.6C63.7,51.2,63.7,64.8,63.7,64.8z"/>
</g>
<rect x="64.2" y="51.6" class="st9" width="5.7" height="12.6"/>
<g>
	<rect x="64.2" y="56" class="st7" width="5.7" height="0.6"/>
	<rect x="64.2" y="56.5" class="st3" width="5.7" height="0.1"/>
</g>
<polygon class="st3" points="64.4,52 69.9,52 69.9,51.6 64.2,51.6 64.2,64.2 64.4,64.2 "/>
<polygon class="st7" points="71.8,65 62.4,65 62.9,65.6 71.3,65.6 "/>
<rect x="62.9" y="65.6" class="st5" width="8.4" height="0.5"/>
<rect x="62.9" y="65.6" class="st3" width="8.4" height="0.1"/>
<polygon class="st10" points="67.4,51.6 64.2,60 64.2,56.4 66.2,51.6 "/>
<polygon class="st10" points="69.2,51.6 64.2,63.2 64.2,61.7 68.4,51.6 "/>
<g>
	<rect x="63.5" y="61.8" class="st8" width="0.2" height="1.7"/>
	<rect x="63.5" y="52.5" class="st8" width="0.2" height="1.7"/>
</g>
<rect x="63" y="64.8" class="st3" width="8.2" height="0.2"/>
<rect x="41" y="50.2" class="st5" width="8.2" height="14.5"/>
<path class="st6" d="M49,64.8h-7.7V50.3H49V64.8z M41.3,64.6h7.4v-14h-7.4V64.6z"/>
<g>
	<rect x="41.6" y="50.8" class="st7" width="6.8" height="13.6"/>
	<path class="st8" d="M48.5,64.6h-6.9V50.7h6.9V64.6z M41.7,64.5h6.6V50.9h-6.6V64.5z"/>
</g>
<rect x="42.2" y="51.3" class="st9" width="5.7" height="12.6"/>
<g>
	<rect x="42.2" y="55.7" class="st7" width="5.7" height="0.6"/>
	<rect x="42.2" y="56.2" class="st3" width="5.7" height="0.1"/>
</g>
<polygon class="st3" points="42.4,51.6 47.9,51.6 47.9,51.3 42.2,51.3 42.2,63.9 42.4,63.9 "/>
<polygon class="st7" points="49.8,64.7 40.3,64.7 40.9,65.3 49.3,65.3 "/>
<rect x="40.9" y="65.3" class="st5" width="8.4" height="0.5"/>
<rect x="40.9" y="65.3" class="st3" width="8.4" height="0.1"/>
<polygon class="st10" points="45.4,51.3 42.2,59.7 42.2,56.1 44.2,51.3 "/>
<polygon class="st10" points="47.2,51.3 42.2,62.9 42.2,61.4 46.4,51.3 "/>
<g>
	<rect x="41.5" y="61.5" class="st8" width="0.2" height="1.7"/>
	<rect x="41.5" y="52.2" class="st8" width="0.2" height="1.7"/>
</g>
<rect x="41" y="64.5" class="st3" width="8.2" height="0.2"/>
<path class="st9" d="M59.3,23.8c0,1.9-1.4,3.3-3.3,3.3s-3.3-1.4-3.3-3.3c0-1.9,1.4-3.3,3.3-3.3S59.3,22,59.3,23.8z"/>
<path class="st10" d="M57.1,20.7l-3.6,5.2c-0.3-0.4-0.5-0.8-0.6-1.3l2.8-4c0.1,0,0.2,0,0.4,0C56.4,20.5,56.8,20.6,57.1,20.7z"/>
<path class="st10" d="M58.3,21.4l-3.7,5.3c-0.2-0.1-0.4-0.2-0.6-0.4l3.7-5.4l0,0C57.9,21.1,58.1,21.2,58.3,21.4z"/>
<path class="st3" d="M53.2,24.2c0-1.9,1.4-3.3,3.3-3.3c0.8,0,1.5,0.3,2.1,0.7c-0.6-0.7-1.5-1.2-2.5-1.2c-1.9,0-3.3,1.4-3.3,3.3
	c0,1,0.4,2,1.2,2.5C53.5,25.7,53.2,25,53.2,24.2z"/>
<path class="st3" d="M56.1,27.6c-2,0-3.6-1.7-3.6-3.6s1.7-3.6,3.6-3.6c2,0,3.6,1.7,3.6,3.6S58,27.6,56.1,27.6z M56.1,21
	c-1.7,0-3,1.3-3,3c0,1.7,1.3,3,3,3c1.7,0,3-1.3,3-3C59.1,22.3,57.7,21,56.1,21z"/>
<path class="st1" d="M56,27.4c-2,0-3.6-1.7-3.6-3.6s1.7-3.6,3.6-3.6c2,0,3.6,1.7,3.6,3.6S58,27.4,56,27.4z M56,20.8
	c-1.7,0-3,1.3-3,3c0,1.7,1.3,3,3,3c1.7,0,3-1.3,3-3C59,22.1,57.6,20.8,56,20.8z"/>
<path class="st11" d="M56.2,26.9c1.7,0,3-1.3,3-3c0-0.7-0.3-1.4-0.7-2c0.4,0.5,0.6,1.1,0.6,1.8c0,1.7-1.3,3-3,3
	c-0.9,0-1.7-0.4-2.3-1C54.3,26.4,55.2,26.9,56.2,26.9z"/>
<path class="st10" d="M52.6,24c0-2,1.7-3.6,3.6-3.6c1.1,0,2.1,0.5,2.7,1.2c-0.6-0.8-1.7-1.4-2.9-1.4c-2,0-3.6,1.7-3.6,3.6
	c0,0.9,0.3,1.8,0.8,2.4C52.8,25.5,52.6,24.8,52.6,24z"/>
<rect x="51.5" y="50.7" class="st1" width="9" height="19.2"/>
<polygon class="st12" points="59.2,52.2 59.2,60.8 53,60.8 52.3,61.6 59.8,61.6 59.8,51.4 "/>
<polygon class="st13" points="53,52.2 59.2,52.2 59.8,51.4 52.3,51.4 52.3,61.6 53,60.8 "/>
<polygon class="st13" points="53,63.1 59.2,63.1 59.8,62.5 52.3,62.5 52.3,69.3 53,68.7 "/>
<polygon class="st12" points="59.2,63.1 59.2,68.7 53,68.7 52.3,69.3 59.8,69.3 59.8,62.5 "/>
<path class="st14" d="M60.2,62c0,0.2-0.2,0.3-0.3,0.3c-0.2,0-0.3-0.1-0.3-0.3s0.1-0.3,0.3-0.3C60.1,61.7,60.2,61.8,60.2,62z"/>
<path class="st15" d="M59.9,61.8h-1.5v0.3h1.5C60,62.1,60,62,60,62C60.1,61.9,60,61.8,59.9,61.8z"/>
<rect x="50.4" y="70.4" class="st6" width="11.4" height="0.7"/>
<polygon class="st8" points="63.5,71.8 48.5,71.8 50.4,71.2 61.8,71.2 "/>
<polygon class="st8" points="65.4,73.1 46.7,73.1 48.5,72.5 63.5,72.5 "/>
<rect x="48.5" y="71.8" class="st6" width="15" height="0.7"/>
<polygon class="st8" points="60.5,69.9 51.5,69.9 50.4,70.4 61.8,70.4 "/>
<rect x="46.7" y="73.1" class="st16" width="18.7" height="0.9"/>
<path class="st4" d="M43.2,82.3H25.1c-1.4,0-2.6-1.1-2.6-2.6V44.8c0-1.4,1.1-2.6,2.6-2.6h18.1c1.4,0,2.6,1.1,2.6,2.6v34.9
	C45.8,81.2,44.6,82.3,43.2,82.3z"/>
<rect x="24.9" y="45" class="st17" width="18.6" height="30.9"/>
<polygon class="st18" points="25.4,45.6 25.4,75.9 24.9,75.9 24.9,45 43.5,45 43.5,45.6 "/>
<g>
	<path class="st19" d="M35.6,80.7h-2.8c-0.8,0-1.5-0.6-1.5-1.2c0-0.6,0.7-1.2,1.5-1.2h2.8c0.8,0,1.5,0.6,1.5,1.2
		C37.2,80.1,36.5,80.7,35.6,80.7z"/>
</g>
<g class="st20">
	<path d="M32.7,78.3h2.8c0.8,0,1.4,0.5,1.5,1.1v-0.1c0-0.7-0.7-1.2-1.5-1.2h-2.8c-0.8,0-1.5,0.6-1.5,1.2v0.1
		C31.3,78.8,32,78.3,32.7,78.3z"/>
</g>
<path class="st21" d="M40.3,63.8H28c-0.1,0-0.3-0.2-0.3-0.5s0.1-0.5,0.3-0.5h12.3c0.1,0,0.3,0.2,0.3,0.5
	C40.6,63.6,40.5,63.8,40.3,63.8z"/>
<path class="st22" d="M38.9,63.8H28c-0.1,0-0.3-0.2-0.3-0.5s0.1-0.5,0.3-0.5h10.9c0.1,0,0.3,0.2,0.3,0.5
	C39.2,63.6,39.1,63.8,38.9,63.8z"/>
<path class="st21" d="M40.3,66.8H28c-0.1,0-0.3-0.2-0.3-0.5s0.1-0.5,0.3-0.5h12.3c0.1,0,0.3,0.2,0.3,0.5
	C40.6,66.5,40.5,66.8,40.3,66.8z"/>
<path class="st22" d="M37,66.8h-9c-0.1,0-0.3-0.2-0.3-0.5s0.1-0.5,0.3-0.5h9c0.1,0,0.3,0.2,0.3,0.5C37.3,66.5,37.2,66.8,37,66.8z"/>
<path class="st21" d="M40.3,69.7H28c-0.1,0-0.3-0.2-0.3-0.5s0.1-0.5,0.3-0.5h12.3c0.1,0,0.3,0.2,0.3,0.5
	C40.6,69.5,40.5,69.7,40.3,69.7z"/>
<path class="st22" d="M32.3,69.7H28c-0.1,0-0.3-0.2-0.3-0.5s0.1-0.5,0.3-0.5h4.3c0.1,0,0.3,0.2,0.3,0.5S32.5,69.7,32.3,69.7z"/>
<path class="st21" d="M40.3,72.7H28c-0.1,0-0.3-0.2-0.3-0.5s0.1-0.5,0.3-0.5h12.3c0.1,0,0.3,0.2,0.3,0.5
	C40.6,72.5,40.5,72.7,40.3,72.7z"/>
<path class="st22" d="M34.9,72.7H28c-0.1,0-0.3-0.2-0.3-0.5s0.1-0.5,0.3-0.5h6.9c0.1,0,0.3,0.2,0.3,0.5S35,72.7,34.9,72.7z"/>
<path class="st4" d="M53.5,92H36.8c-1.7,0-3-1.3-3-3v-6.6h0.8V89c0,1.1,0.9,2.2,2.2,2.2h16.7c1.1,0,2.2-0.9,2.2-2.2V77.5h0.8V89
	C56.5,90.7,55.2,92,53.5,92z"/>
<rect x="31.7" y="82.3" class="st8" width="5" height="1.1"/>
<rect x="31.7" y="82.3" class="st3" width="5" height="0.2"/>
<polygon class="st23" points="35.4,85.8 32.9,85.8 31.7,83.5 36.7,83.5 "/>
<rect x="53.6" y="74.1" class="st8" width="5" height="1.1"/>
<rect x="53.6" y="74.1" class="st3" width="5" height="0.2"/>
<polygon class="st23" points="57.3,77.5 54.8,77.5 53.6,75.2 58.6,75.2 "/>
<g>
	<path class="st24" d="M33.2,59.1c-0.1,0-0.2,0-0.2,0.1c-0.1,0-0.1,0.1-0.2,0.1v-0.2h-0.4v1.2h0.4v-0.6c0-0.1,0-0.1,0.1-0.2
		c0.1,0,0.1-0.1,0.2-0.1c0.1,0,0.1,0,0.2,0.1c0.1,0,0.1,0.1,0.1,0.2v0.6h0.4v-0.7c0-0.2-0.1-0.3-0.1-0.4
		C33.5,59.1,33.4,59.1,33.2,59.1z"/>
	<path class="st24" d="M38.6,58.5l0.9-4.3l-4.6,0l0,4.3h1.3L38.6,58.5z M35.6,54.9l3,0l-0.3,1.4l-2.6,0V54.9L35.6,54.9z M35.6,57
		h2.5l-0.3,1l-2.3,0L35.6,57z"/>
	<path class="st24" d="M30.3,58v0.6h0.6h0.5l0.4,0l0-0.6l-0.3,0l-0.2-1h2.1l0,1h-0.6l0,0.6c0.6,0,0.8,0,1.4,0l0,0v-0.4l0,0v-3.3
		c0-0.2,0-0.4,0-0.6c-0.9,0-1.4,0-2.3,0l0,0.6l1.5,0l0,1.4l-2.2,0L30.2,51h0.3v-0.6c-0.8,0-1.7,0-2.5,0l0,0.6l1.3,0l1.3,6.9L30.3,58
		z"/>
	<path class="st24" d="M31.7,58.7c-0.1-0.1-0.3-0.1-0.5-0.1s-0.3,0-0.5,0.1c-0.1,0.1-0.3,0.2-0.4,0.3c-0.1,0.1-0.1,0.3-0.1,0.4
		s0,0.3,0.1,0.4c0.1,0.1,0.2,0.2,0.4,0.3c0.1,0.1,0.3,0.1,0.5,0.1s0.3,0,0.5-0.1c0.1-0.1,0.3-0.2,0.3-0.3c0.1-0.1,0.1-0.3,0.1-0.4
		s0-0.3-0.1-0.4C32,58.9,31.9,58.8,31.7,58.7z M31.6,59.8c-0.1,0.1-0.2,0.1-0.4,0.1s-0.3,0-0.4-0.1c-0.1-0.1-0.1-0.2-0.1-0.3
		s0.1-0.3,0.1-0.3C31,59,31.1,59,31.2,59s0.3,0,0.4,0.1c0.1,0.1,0.1,0.2,0.1,0.3C31.7,59.6,31.7,59.7,31.6,59.8z"/>
	<path class="st24" d="M38.7,58.7c-0.1-0.1-0.3-0.1-0.5-0.1c-0.2,0-0.4,0-0.5,0.1c-0.2,0.1-0.3,0.2-0.4,0.3
		c-0.1,0.1-0.1,0.3-0.1,0.5s0,0.3,0.1,0.5c0.1,0.1,0.2,0.2,0.4,0.3c0.1,0.1,0.3,0.1,0.5,0.1c0.2,0,0.3,0,0.4-0.1
		c0.1-0.1,0.2-0.1,0.3-0.2c0.1-0.1,0.1-0.2,0.2-0.3h-0.6c-0.1,0.1-0.2,0.2-0.3,0.2c-0.1,0-0.2,0-0.3-0.1c-0.1-0.1-0.1-0.1-0.1-0.3
		h1.4c0-0.1,0-0.1,0-0.2c0-0.2,0-0.3-0.1-0.5C38.9,58.8,38.8,58.7,38.7,58.7z M37.8,59.3c0-0.1,0.1-0.2,0.1-0.2
		C38,59,38.1,59,38.2,59c0.1,0,0.2,0,0.3,0.1c0.1,0.1,0.1,0.1,0.1,0.2H37.8L37.8,59.3z"/>
	<rect x="34.1" y="58.7" class="st24" width="0.4" height="1.6"/>
	<path class="st24" d="M35.3,58.7c-0.1,0-0.1-0.1-0.2-0.1c-0.1,0-0.1,0-0.2,0.1c-0.1,0-0.1,0.1-0.1,0.1c0,0.1,0,0.1,0.1,0.1
		C35,59,35,59,35.1,59c0.1,0,0.1,0,0.2-0.1c0.1,0,0.1-0.1,0.1-0.1C35.3,58.8,35.3,58.7,35.3,58.7z"/>
	<rect x="34.9" y="59.1" class="st24" width="0.4" height="1.2"/>
	<path class="st24" d="M36.5,59.1c-0.1,0-0.2,0-0.2,0.1c-0.1,0-0.1,0.1-0.2,0.1v-0.2h-0.4v1.2h0.4v-0.6c0-0.1,0-0.1,0.1-0.2
		c0.1,0,0.1-0.1,0.2-0.1c0.1,0,0.1,0,0.2,0.1c0.1,0,0.1,0.1,0.1,0.2v0.6H37v-0.7c0-0.2-0.1-0.3-0.1-0.4
		C36.8,59.1,36.6,59.1,36.5,59.1z"/>
</g>
<path class="st10" d="M25.1,42.3c-1.4,0-2.6,1.1-2.6,2.6v34.9c0,0.1,0,0.2,0,0.3l17.2-37.8C39.8,42.3,25.1,42.3,25.1,42.3z"/>
</svg>
