<?xml version="1.0" encoding="utf-8"?>
<!-- Generator: Adobe Illustrator 24.1.1, SVG Export Plug-In . SVG Version: 6.00 Build 0)  -->
<svg version="1.1"
	 id="svg8" inkscape:export-filename="/home/venky/mandi/src/main/resources/web_manifest/drawing.png" inkscape:export-xdpi="96" inkscape:export-ydpi="96" inkscape:version="1.0 (unknown)" sodipodi:docname="drawing.svg" xmlns:cc="http://creativecommons.org/ns#" xmlns:dc="http://purl.org/dc/elements/1.1/" xmlns:inkscape="http://www.inkscape.org/namespaces/inkscape" xmlns:rdf="http://www.w3.org/1999/02/22-rdf-syntax-ns#" xmlns:sodipodi="http://sodipodi.sourceforge.net/DTD/sodipodi-0.dtd" xmlns:svg="http://www.w3.org/2000/svg"
	 xmlns="http://www.w3.org/2000/svg" xmlns:xlink="http://www.w3.org/1999/xlink" x="0px" y="0px" viewBox="0 0 850.4 742.8"
	 style="enable-background:new 0 0 850.4 742.8;" xml:space="preserve">
<style type="text/css">
	.st0{fill:#FFFFFF;}
</style>
<g>
	<path class="st0" d="M385.1,650.4c-6.5,0-12.4,1.1-17.6,3.4c-5.2,2.3-9.4,5.4-12.4,9.3v-11.8h-30.4v89.2h30.4v-48.4
		c0-6,1.7-10.6,5.1-13.9c3.4-3.3,8-5,13.9-5c5.8,0,10.4,1.7,13.9,5c3.4,3.3,5.1,7.9,5.1,13.9v48.4h30.2v-52.1
		c0-11.8-3.5-21.1-10.4-27.9C406,653.8,396.7,650.4,385.1,650.4z"/>
	<path class="st0" d="M785.1,606.3l65.3-319.1l-343.1-1l-0.9,319.1h97.5L785.1,606.3z M559.3,334.9l220.8-1.3l-25.4,108.3
		l-195.4-1.3V334.9z M560.4,491.2l188.4,0.5l-19.7,74l-169.8,1.2L560.4,491.2z"/>
	<path class="st0" d="M166.7,567.4l0.3,41.3l45.3,0.5l36.6-0.2l31.5-1.6l-1.1-43.3l-23.5-1l-16.2-71.4l157.8-0.5l2,73.1l-47.8,0.4
		l0.9,43.9c46.5-1.3,59,0.9,105.4-1.2l0,0l0-32.9l0.6,0.5l-0.7-245.9c1.7-13.5,0.7-28.4,0.7-42.3c-65.5-0.6-105.8-0.3-171.2-0.3
		l1.6,45.4l110.3,1.4l-0.8,105.2l-166.6,1.3l-70-392.3l25.2,0.1V1.7C125.2,0.9,63.4,0.7,1.5,0L0,46l98.7,1.6l95.7,518.9L166.7,567.4
		z"/>
	<path class="st0" d="M271.3,624.6c-11.1-5.3-23.3-8-36.6-8c-13.3,0-25.5,2.7-36.6,8c-11.1,5.3-19.9,12.8-26.4,22.3
		c-6.5,9.5-9.8,20.3-9.8,32.2c0,12,3.3,22.7,9.8,32.3c6.5,9.6,15.3,17,26.4,22.4c11.1,5.3,23.3,8,36.6,8c13.3,0,25.5-2.7,36.5-8
		c11-5.3,19.8-12.8,26.2-22.4c6.4-9.6,9.7-20.3,9.7-32.3c0-12-3.2-22.7-9.6-32.2C291.1,637.4,282.4,629.9,271.3,624.6z M261.9,704.9
		c-6.8,6.5-15.8,9.8-27.1,9.8c-11.4,0-20.5-3.2-27.3-9.7c-6.8-6.4-10.2-15.1-10.2-25.9c0-10.9,3.4-19.6,10.2-25.9
		c6.8-6.4,15.9-9.6,27.3-9.6c11.3,0,20.3,3.2,27.1,9.7c6.8,6.4,10.2,15.1,10.2,25.9C272,689.8,268.6,698.4,261.9,704.9z"/>
	<path class="st0" d="M791.6,618.5c-11.3-5.2-24.2-7.8-38.6-7.8c-14.9,0-28,2.7-39.4,8c-11.5,5.4-20.4,13-26.7,22.9
		c-6.4,9.9-9.5,21.6-9.5,34.9c0,13.3,3.2,24.9,9.7,34.9c6.4,9.9,15.4,17.6,26.8,22.9c11.4,5.4,24.5,8,39.2,8c12.2,0,23.2-1.9,33-5.7
		c9.8-3.8,18-9.1,24.6-15.8c6.5-6.7,11-14.3,13.6-22.7h-48.8c-4.5,8.3-12.4,12.4-23.9,12.4c-7.7,0-14.2-2.1-19.5-6.3
		c-5.3-4.2-8.3-10.3-9-18.2h103.8c0.5-4,0.8-7.8,0.8-11.5c0-12.8-3.2-24.1-9.5-33.7C811.6,631.1,802.8,623.7,791.6,618.5z
		 M723.1,664.2c1.2-7,4.5-12.5,9.8-16.3c5.3-3.8,11.8-5.7,19.5-5.7c8,0,14.8,2,20.1,6c5.4,4,8.1,9.3,8.1,16.1H723.1z"/>
	<rect x="450.4" y="624.3" class="st0" width="30.4" height="118.3"/>
	<path class="st0" d="M536.1,619.1c-3.4-2.8-7.7-4.2-12.9-4.2c-5.3,0-9.7,1.4-13.1,4.2c-3.4,2.8-5.1,6.4-5.1,10.6
		c0,4.2,1.7,7.6,5.1,10.5c3.4,2.8,7.7,4.2,13.1,4.2c5.2,0,9.5-1.4,12.9-4.2c3.4-2.8,5.1-6.3,5.1-10.5
		C541.1,625.4,539.5,621.9,536.1,619.1z"/>
	<rect x="507.9" y="653.7" class="st0" width="30.4" height="89.2"/>
	<path class="st0" d="M626.7,650.4c-6.5,0-12.4,1.1-17.6,3.4c-5.2,2.3-9.4,5.4-12.4,9.3v-11.8h-30.4v89.2h30.4v-48.4
		c0-6,1.7-10.6,5.1-13.9c3.4-3.3,8-5,13.9-5c5.8,0,10.4,1.7,13.9,5c3.4,3.3,5.1,7.9,5.1,13.9v48.4h30.2v-52.1
		c0-11.8-3.5-21.1-10.4-27.9C647.6,653.8,638.3,650.4,626.7,650.4z"/>
</g>
</svg>
