<?xml version="1.0" encoding="utf-8"?>
<!-- Generator: Adobe Illustrator 24.1.1, SVG Export Plug-In . SVG Version: 6.00 Build 0)  -->
<svg version="1.1" id="Capa_1" xmlns="http://www.w3.org/2000/svg" xmlns:xlink="http://www.w3.org/1999/xlink" x="0px" y="0px"
	 viewBox="0 0 80 80" style="enable-background:new 0 0 80 80;" xml:space="preserve">
<style type="text/css">
	.st0{fill:#FEDBAB;}
	.st1{fill:#FEC478;}
	.st2{fill:#17ACE8;}
	.st3{fill:#1689FC;}
	.st4{fill:#136EF1;}
</style>
<path class="st0" d="M71.8,44.3L60.7,60.2c-2.1,2.8-5.6,4.6-9.1,4.6H18.9l-1.9-20l1.9-1.8c2.9-2.5,4.8-4.3,8.5-5.2
	c4.5-1,8.9,0.2,11.8,2.9c0.7,0.7,1.2,1.3,2.2,1.3h0.4c8.8,0,0.8,0,9.6,0c2.1,0,3.8,1.7,3.8,3.8s-1.6,3.9-3.8,3.9h-7.8
	c-1,0-1.9,0.8-1.9,1.9c0,1,0.8,1.9,1.9,1.9h9c0.7,0,2.1-0.4,2.8-1.2l10.2-12.8c1.3-1.4,3.4-1.6,5-0.5C72.6,40.2,73,42.6,71.8,44.3z"
	/>
<g>
	<path class="st1" d="M41.9,51.5V42c8.8,0,0.8,0,9.6,0c2.1,0,3.8,1.7,3.8,3.8s-1.7,3.9-3.9,3.9h-7.8C42.8,49.6,41.9,50.5,41.9,51.5z
		"/>
	<path class="st1" d="M71.8,44.3L60.7,60.2c-2.1,2.8-5.6,4.6-9.1,4.6h-9.7V51.5c0,1,0.8,1.9,1.9,1.9h9c0.7,0,2.1-0.4,2.8-1.2
		l10.2-12.8c1.3-1.4,3.4-1.6,5-0.5C72.6,40.2,73,42.6,71.8,44.3z"/>
</g>
<path class="st2" d="M19.2,71.5L7.7,48.6c-0.5-0.9-0.1-2,0.8-2.5l4.3-2.1c2.8-1.4,6.2-0.3,7.6,2.5l8,16.1c1.4,2.8,0.3,6.2-2.5,7.6
	l-4.3,2.1C20.7,72.8,19.6,72.3,19.2,71.5z"/>
<g>
	<path class="st3" d="M39.3,18.9c-6.3,0-11.5,5.3-11.5,11.5v2.1c0,1,0.8,1.9,1.9,1.9H49c1,0,1.9-0.8,1.9-1.9v-2
		C50.8,24.2,45.5,18.9,39.3,18.9z"/>
	<path class="st4" d="M50.8,30.4v2.1c0,1-0.8,1.9-1.9,1.9h-9.6V18.9C45.5,18.9,50.8,24.2,50.8,30.4z"/>
	<path class="st2" d="M39.3,7.5c-4.2,0-7.8,3.4-7.8,7.6s3.5,7.6,7.8,7.6s7.8-3.4,7.8-7.6S43.4,7.5,39.3,7.5z"/>
	<path class="st3" d="M46.9,15.1c0,4.2-3.5,7.6-7.8,7.6V7.5C43.4,7.5,46.9,10.9,46.9,15.1z"/>
</g>
<g>
	<path class="st3" d="M58.5,21.3c-6.3,0-11.5,5.3-11.5,11.5v2c0,1,0.8,1.9,1.9,1.9h19.3c1,0,1.9-0.8,1.9-1.9v-2
		C70,26.6,64.7,21.3,58.5,21.3z"/>
	<path class="st4" d="M70,32.8v2c0,1-0.8,1.9-1.9,1.9h-9.6V21.3C64.7,21.3,70,26.6,70,32.8z"/>
	<path class="st2" d="M58.5,9.9c-4.2,0-7.8,3.4-7.8,7.6s3.5,7.6,7.8,7.6c4.2,0,7.8-3.4,7.8-7.6S62.7,9.9,58.5,9.9z"/>
	<path class="st3" d="M66.2,17.5c0,4.2-3.5,7.6-7.8,7.6V9.9C62.7,9.9,66.2,13.3,66.2,17.5z"/>
</g>
<g>
	<path class="st3" d="M20.8,20.7c-6.2,0-11.5,5.3-11.5,11.5v2c0,1,0.8,1.9,1.9,1.9h19.3c1,0,1.9-0.8,1.9-1.9v-2
		C32.4,26,27.1,20.7,20.8,20.7z"/>
	<path class="st4" d="M32.4,32.2v2c0,1-0.8,1.9-1.9,1.9h-9.7V20.7C27.1,20.7,32.4,26,32.4,32.2z"/>
	<path class="st2" d="M20.8,9.3c-4.2,0-7.8,3.4-7.8,7.6s3.5,7.6,7.8,7.6s7.8-3.4,7.8-7.6S25.1,9.3,20.8,9.3z"/>
	<path class="st3" d="M28.6,16.9c0,4.2-3.5,7.6-7.8,7.6V9.3C25.1,9.3,28.6,12.7,28.6,16.9z"/>
</g>
</svg>
