<?xml version="1.0" encoding="UTF-8" standalone="no"?>
<svg
   xmlns:dc="http://purl.org/dc/elements/1.1/"
   xmlns:cc="http://creativecommons.org/ns#"
   xmlns:rdf="http://www.w3.org/1999/02/22-rdf-syntax-ns#"
   xmlns:svg="http://www.w3.org/2000/svg"
   xmlns="http://www.w3.org/2000/svg"
   xmlns:sodipodi="http://sodipodi.sourceforge.net/DTD/sodipodi-0.dtd"
   xmlns:inkscape="http://www.inkscape.org/namespaces/inkscape"
   width="249.94754mm"
   height="250.13785mm"
   viewBox="0 0 249.94754 250.13785"
   version="1.1"
   id="svg8"
   inkscape:version="1.0 (unknown)"
   sodipodi:docname="drawing3.svg">
  <defs
     id="defs2" />
  <sodipodi:namedview
     id="base"
     pagecolor="#ffffff"
     bordercolor="#666666"
     borderopacity="1.0"
     inkscape:pageopacity="0.0"
     inkscape:pageshadow="2"
     inkscape:zoom="0.25"
     inkscape:cx="1253.318"
     inkscape:cy="614.95609"
     inkscape:document-units="mm"
     inkscape:current-layer="layer1"
     inkscape:document-rotation="0"
     showgrid="false"
     inkscape:snap-global="false"
     inkscape:window-width="1366"
     inkscape:window-height="704"
     inkscape:window-x="0"
     inkscape:window-y="27"
     inkscape:window-maximized="1"
     fit-margin-top="0"
     fit-margin-left="0"
     fit-margin-right="0"
     fit-margin-bottom="0" />
  <metadata
     id="metadata5">
    <rdf:RDF>
      <cc:Work
         rdf:about="">
        <dc:format>image/svg+xml</dc:format>
        <dc:type
           rdf:resource="http://purl.org/dc/dcmitype/StillImage" />
        <dc:title />
      </cc:Work>
    </rdf:RDF>
  </metadata>
  <g
     inkscape:label="Layer 1"
     inkscape:groupmode="layer"
     id="layer1"
     transform="translate(1.0457049,-12.458756)">
    <path
       style="fill:none;stroke:#000000;stroke-width:10;stroke-linecap:butt;stroke-linejoin:miter;stroke-miterlimit:4;stroke-dasharray:none;stroke-opacity:1"
       d="M -1.0457049,15.224696 H 31.281248 L 59.601329,156.33525 m 174.476361,-0.3563 -10.17718,51.75033 -75.46982,3.3e-4 -3.28473,-98.46294 h 100.30558 l -11.37385,46.71228 -174.476361,0.3563 8.317132,51.39457 80.512229,-2.1e-4 -3.28473,-98.46294 H 57.899351"
       id="path833"
       sodipodi:nodetypes="cccccccccccccc" />
    <text
       xml:space="preserve"
       style="font-style:normal;font-variant:normal;font-weight:normal;font-stretch:normal;font-size:77.831px;line-height:1.25;font-family:sans-serif;-inkscape-font-specification:sans-serif;fill:#000000;fill-opacity:1;stroke:none;stroke-width:0;stroke-miterlimit:4;stroke-dasharray:none;stroke-opacity:1"
       x="43.757896"
       y="289.08411"
       id="text883"
       transform="scale(1.1037622,0.90599226)"><tspan
         sodipodi:role="line"
         id="tspan881"
         x="43.757896"
         y="289.08411"
         style="font-style:normal;font-variant:normal;font-weight:normal;font-stretch:normal;font-family:sans-serif;-inkscape-font-specification:sans-serif;stroke:none;stroke-width:0;stroke-miterlimit:4;stroke-dasharray:none;stroke-opacity:1">O</tspan></text>
    <text
       transform="scale(1.0640127,0.93983841)"
       id="text883-6"
       y="278.99536"
       x="173.5506"
       style="font-style:normal;font-variant:normal;font-weight:normal;font-stretch:normal;font-size:99.7157px;line-height:1.25;font-family:sans-serif;-inkscape-font-specification:sans-serif;fill:#000000;fill-opacity:1;stroke:none;stroke-width:0;stroke-miterlimit:4;stroke-dasharray:none;stroke-opacity:1"
       xml:space="preserve"
       inkscape:transform-center-x="-9.6023228"
       inkscape:transform-center-y="2.6706614"><tspan
         style="font-style:normal;font-variant:normal;font-weight:normal;font-stretch:normal;font-family:sans-serif;-inkscape-font-specification:sans-serif;stroke:none;stroke-width:0;stroke-miterlimit:4;stroke-dasharray:none;stroke-opacity:1"
         y="278.99536"
         x="173.5506"
         id="tspan881-7"
         sodipodi:role="line">e</tspan></text>
    <text
       transform="scale(0.96913114,1.0318521)"
       id="text883-5"
       y="245.31523"
       x="112.6999"
       style="font-style:normal;font-variant:normal;font-weight:normal;font-stretch:normal;font-size:46.9213px;line-height:1.25;font-family:sans-serif;-inkscape-font-specification:sans-serif;fill:#000000;fill-opacity:1;stroke:none;stroke-width:0;stroke-miterlimit:4;stroke-dasharray:none;stroke-opacity:1"
       xml:space="preserve"><tspan
         style="font-style:normal;font-variant:normal;font-weight:normal;font-stretch:normal;font-family:sans-serif;-inkscape-font-specification:sans-serif;stroke:none;stroke-width:0;stroke-miterlimit:4;stroke-dasharray:none;stroke-opacity:1"
         y="245.31523"
         x="112.6999"
         id="tspan881-3"
         sodipodi:role="line">nlin</tspan></text>
    <path
       id="path846"
       d="m 268.1834,22.844266 36.22457,0.419741 20.82705,98.329593 193.01574,1.59854 -23.17849,103.90251 -161.34542,-1.31126 -38.15704,-190.1609 -28.88848,-1.002458 z"
       style="fill:none;stroke:#000000;stroke-width:0.264583px;stroke-linecap:butt;stroke-linejoin:miter;stroke-opacity:1;fill-opacity:1" />
    <path
       sodipodi:nodetypes="ccccc"
       id="path848"
       d="m 326.4328,135.5047 73.27667,-0.15826 0.53769,80.74397 -56.80111,-0.20056 z"
       style="fill:none;stroke:#000000;stroke-width:0.264583px;stroke-linecap:butt;stroke-linejoin:miter;stroke-opacity:1" />
    <path
       style="fill:none;stroke:#000000;stroke-width:0.264583px;stroke-linecap:butt;stroke-linejoin:miter;stroke-opacity:1"
       d="m 416.35834,185.8157 0.0607,30.48876 71.3364,0.26216 6.92669,-29.12412 z m 80.64257,-12.3605 9.35529,-37.8029 -89.68084,-0.15826 -0.25802,36.50249 z"
       id="path848-3"
       sodipodi:nodetypes="cccccccccc" />
    <path
       sodipodi:nodetypes="cc"
       id="path865"
       d="M 409.18774,226.67384 409.06888,121.86711"
       style="fill:none;stroke:#000000;stroke-width:0.264583px;stroke-linecap:butt;stroke-linejoin:miter;stroke-opacity:1" />
    <path
       transform="matrix(0.26458333,0,0,0.26458333,-1.0457049,12.458756)"
       id="path869"
       d="m 1598.318,805.99887 -47,-1.29666 V 610.49613 416.29006 l 203,2.84649 c 111.65,1.56556 203.3482,3.11365 203.7738,3.44018 0.4256,0.32654 -18.4744,86.94548 -42,192.48653 l -42.7738,191.89283 -114,0.16972 c -62.7,0.0933 -135.15,-0.41378 -161,-1.12694 z m 265.4544,-91.04278 14.107,-58 h -72.6375 c -39.9506,0 -108.0269,-1.18523 -151.2807,-2.63384 l -78.6432,-2.63384 v 60.63384 60.63384 h 137.1736 137.1737 z m 38.9839,-176.47784 c 9.3166,-38.76281 16.4044,-70.98185 15.7505,-71.59786 -0.6538,-0.616 -78.1388,-2.44223 -172.1888,-4.05827 l -171,-2.93827 v 72.40918 72.40918 l 47,1.26681 c 25.85,0.69674 95.7122,1.65387 155.2495,2.12694 l 108.2494,0.86013 z"
       style="fill:#000027;fill-opacity:1;stroke:#14005b;stroke-width:0;stroke-linecap:round" />
    <path
       transform="matrix(0.26458333,0,0,0.26458333,-1.0457049,12.458756)"
       id="path871"
       d="m 1267.318,803.68473 c 0,-2.4486 -139.6331,-697.8739 -142.0914,-707.66854 -2.4372,-9.710644 -3.4577,-9.94548 -55.0549,-12.66942 -28.9145,-1.52646 -53.2202,-3.423856 -54.0128,-4.216432 -0.7926,-0.792576 -0.2016,-9.706018 1.3132,-19.807648 l 2.7542,-18.3666 54.5459,0.473259 c 30.0002,0.260292 59.87,1.614846 66.3774,3.010118 l 11.8316,2.536859 38.4137,180.901844 c 21.1275,99.49602 39.8013,182.29147 41.4973,183.98989 1.696,1.69841 73.1357,3.66892 158.7547,4.37889 l 155.6711,1.29086 v 193.70916 193.70912 h -140 c -77,0 -140,-0.57212 -140,-1.27136 z m 252,-162.14188 c 0,-72.27728 -1.1565,-142.47728 -2.5699,-156 l -2.5698,-24.58676 h -139.4301 c -76.6866,0 -139.4302,1.22556 -139.4302,2.72344 0,1.49788 14.4,70.80492 32,154.01564 17.6,83.21072 32,152.1852 32,153.27656 0,1.0914 49.5,1.98436 110,1.98436 h 110 z"
       style="fill:#003c00;fill-opacity:1;stroke:#14005b;stroke-width:0;stroke-linecap:round" />
    <text
       transform="scale(1.1037622,0.90599225)"
       id="text883-67"
       y="305.43146"
       x="281.72672"
       style="font-style:normal;font-variant:normal;font-weight:normal;font-stretch:normal;font-size:77.8309px;line-height:1.25;font-family:sans-serif;-inkscape-font-specification:sans-serif;fill:#000000;fill-opacity:1;stroke:none;stroke-width:0;stroke-miterlimit:4;stroke-dasharray:none;stroke-opacity:1"
       xml:space="preserve"><tspan
         style="font-style:normal;font-variant:normal;font-weight:normal;font-stretch:normal;font-family:sans-serif;-inkscape-font-specification:sans-serif;stroke:none;stroke-width:0;stroke-miterlimit:4;stroke-dasharray:none;stroke-opacity:1"
         y="305.43146"
         x="281.72672"
         id="tspan881-5"
         sodipodi:role="line">O</tspan></text>
    <text
       inkscape:transform-center-y="2.6706614"
       inkscape:transform-center-x="-9.6023228"
       xml:space="preserve"
       style="font-style:normal;font-variant:normal;font-weight:normal;font-stretch:normal;font-size:99.7156px;line-height:1.25;font-family:sans-serif;-inkscape-font-specification:sans-serif;fill:#000000;fill-opacity:1;stroke:none;stroke-width:0;stroke-miterlimit:4;stroke-dasharray:none;stroke-opacity:1"
       x="420.40933"
       y="294.754"
       id="text883-6-3"
       transform="scale(1.0640127,0.93983841)"><tspan
         sodipodi:role="line"
         id="tspan881-7-5"
         x="420.40933"
         y="294.754"
         style="font-style:normal;font-variant:normal;font-weight:normal;font-stretch:normal;font-family:sans-serif;-inkscape-font-specification:sans-serif;stroke:none;stroke-width:0;stroke-miterlimit:4;stroke-dasharray:none;stroke-opacity:1">e</tspan></text>
    <text
       xml:space="preserve"
       style="font-style:normal;font-variant:normal;font-weight:normal;font-stretch:normal;font-size:46.9212px;line-height:1.25;font-family:sans-serif;-inkscape-font-specification:sans-serif;fill:#000000;fill-opacity:1;stroke:none;stroke-width:0;stroke-miterlimit:4;stroke-dasharray:none;stroke-opacity:1"
       x="383.72705"
       y="259.66861"
       id="text883-5-6"
       transform="scale(0.96913114,1.0318521)"><tspan
         sodipodi:role="line"
         id="tspan881-3-2"
         x="383.72705"
         y="259.66861"
         style="font-style:normal;font-variant:normal;font-weight:normal;font-stretch:normal;font-family:sans-serif;-inkscape-font-specification:sans-serif;stroke:none;stroke-width:0;stroke-miterlimit:4;stroke-dasharray:none;stroke-opacity:1">nlin</tspan></text>
  </g>
</svg>
